<svg xmlns="http://www.w3.org/2000/svg" viewBox="0 0 838.61 283.36" width="838" height="283" preserveAspectRatio="none"><defs><style>.cls-1,.cls-2,.cls-3{fill:none;}.cls-1,.cls-2,.cls-4{stroke:#000;}.cls-1,.cls-2,.cls-3,.cls-4{stroke-miterlimit:10;}.cls-1{stroke-width:5px;}.cls-2{stroke-width:4px;}.cls-3{stroke:#ed1c24;stroke-width:23.27px;}.cls-4{fill:#ff0;stroke-width:2.98px;}.cls-5{opacity:0.07;}.cls-6{fill:#fff;}.cls-7{fill:#9e9e9f;}</style></defs><g id="图层_2" data-name="图层 2"><g id="图层_1-2" data-name="图层 1"><g id="_10" data-name="10"><path class="cls-1" d="M195.14,69.52s27,4,38,26,4,55-27,66-67-11-67-47,35-45,39-45,10-12,2-15-10,3-10,3,4.48-15.25,16.5-14.5C202.64,44,208.14,55.52,195.14,69.52Z"/><ellipse cx="167.14" cy="105.02" rx="5" ry="4.38"/><ellipse cx="206.14" cy="105.02" rx="5" ry="4.38"/><polyline class="cls-2" points="188.14 102.52 175.14 125.52 197.14 125.52"/><path class="cls-2" d="M207.14,146.52s-20-15-41,0"/><circle class="cls-3" cx="139.64" cy="141.02" r="128"/><line class="cls-3" x1="47.7" y1="51.82" x2="232.77" y2="236.89"/><path d="M452.06,16.68l5.17,43.74,20.83-43.67h4L457.4,67.26H454l-5.28-42.85L427.8,67.26h-3.31l-6.33-50.51h4.42l5.05,43.67,20.91-43.74Z"/><path d="M501,16.75l10.61,50.51H507l-3.16-15.87H481.77l-8.91,15.87h-4.21l28.93-50.51Zm2.14,30.91-5.05-25.32L483.85,47.66Z"/><path d="M552.62,67.26h-5L536.36,45.45c-.85.09-1.48.14-1.89.14h-9.18l-4.06,21.67h-4.14l9.47-50.51h13.32a20.08,20.08,0,0,1,8.78,1.76,10.75,10.75,0,0,1,5.26,5,12.06,12.06,0,0,1,.78,7.63A15.75,15.75,0,0,1,550,39.83a20.05,20.05,0,0,1-9.21,4.93ZM530,20.34l-4,21.59h8.69A18.1,18.1,0,0,0,545.22,39a11.87,11.87,0,0,0,5.13-7.86c.62-3.31-.1-6-2.17-7.9s-5.23-2.93-9.46-2.93Z"/><path d="M570.38,16.75,592,59.87l8.09-43.12H604L594.5,67.26h-3.45l-21.7-43.2-8.1,43.2h-3.87l9.48-50.51Z"/><path d="M609.68,67.26h-4.14L615,16.75h4.14Z"/><path d="M633.65,16.75,655.3,59.87l8.09-43.12h3.86l-9.47,50.51h-3.46l-21.7-43.2-8.1,43.2h-3.87l9.48-50.51Z"/><path d="M694.75,45.24l.69-3.65H711.1l-3.47,18.49A20.09,20.09,0,0,1,700,65.77,24.63,24.63,0,0,1,689.73,68a19.89,19.89,0,0,1-11.53-3.28,17.27,17.27,0,0,1-6.69-9.21,27.42,27.42,0,0,1-.48-13.6,33.57,33.57,0,0,1,5.59-13.45,30.29,30.29,0,0,1,10.1-9.14A25.24,25.24,0,0,1,699.13,16a17.56,17.56,0,0,1,9.74,2.55,11.36,11.36,0,0,1,5,6.9l-3.67,1.93a9.41,9.41,0,0,0-4.11-5.52,14.18,14.18,0,0,0-7.92-2.07A19.88,19.88,0,0,0,688,22.58a24.45,24.45,0,0,0-8.13,7.83,31.18,31.18,0,0,0-4.53,11.45,24.74,24.74,0,0,0,.27,11.63A14.4,14.4,0,0,0,681,61.36a16.23,16.23,0,0,0,9.69,2.79A20.26,20.26,0,0,0,698,62.84a15.28,15.28,0,0,0,5.85-3.93l2.56-13.67Z"/><path d="M714.28,67.08a2.45,2.45,0,0,1-.46-2.1,3.51,3.51,0,0,1,1.21-2,3.24,3.24,0,0,1,2.16-.86,2.29,2.29,0,0,1,1.91.86,2.46,2.46,0,0,1,.44,2,3.55,3.55,0,0,1-1.22,2.1,3.21,3.21,0,0,1-2.16.87A2.29,2.29,0,0,1,714.28,67.08Zm5.91-31.46a2.48,2.48,0,0,1-.47-2.11,3.51,3.51,0,0,1,1.21-2,3.2,3.2,0,0,1,2.16-.86,2.25,2.25,0,0,1,1.91.86,2.47,2.47,0,0,1,.45,2,3.67,3.67,0,0,1-1.23,2.11,3.24,3.24,0,0,1-2.16.86A2.29,2.29,0,0,1,720.19,35.62Z"/><path class="cls-4" d="M362.37,5.32l32.7,54.84A7.85,7.85,0,0,1,388.33,72H323a7.84,7.84,0,0,1-6.74-11.86L348.9,5.32A7.84,7.84,0,0,1,362.37,5.32Z"/><path d="M356,63a5.47,5.47,0,0,1-3.78-1.45,4.31,4.31,0,0,1-1.61-3.37,4.55,4.55,0,0,1,1.61-3.49A5.72,5.72,0,0,1,356,53.28a5.66,5.66,0,0,1,3.85,1.39,4.65,4.65,0,0,1,1.54,3.49,4.4,4.4,0,0,1-1.54,3.37A5.57,5.57,0,0,1,356,63ZM356,49.27q-3.27,0-3.33-2.9l-1.28-25.09q-.26-4.37,4.61-4.36t4.62,4.36l-1.28,25.09C359.32,48.3,358.2,49.27,356,49.27Z"/><path d="M341.83,153.36a22.18,22.18,0,0,1-10.44,2.13q-8.28,0-13.14-5.38t-4.86-14.35q0-9.43,5.43-15.44a18,18,0,0,1,14-6,23.34,23.34,0,0,1,9,1.52V124a15.34,15.34,0,0,0-8.42-2.37,10.78,10.78,0,0,0-8.59,3.73,14.34,14.34,0,0,0-3.22,9.74q0,5.87,3,9.43a10.32,10.32,0,0,0,8.26,3.57,16.18,16.18,0,0,0,8.92-2.57Z"/><path d="M378.24,154.8h-7.81V138.38H354.82V154.8H347V115h7.81v16.06h15.61V115h7.81Z"/><path d="M383.21,135.42q0-9.34,5-15.22a16.65,16.65,0,0,1,13.29-5.88A15.75,15.75,0,0,1,414.17,120q4.8,5.69,4.79,14.6,0,9.3-5,15.1a17.51,17.51,0,0,1-25.85.18Q383.21,144.27,383.21,135.42Zm8.21-.46a16.22,16.22,0,0,0,2.58,9.5,8.16,8.16,0,0,0,7.07,3.68,8.31,8.31,0,0,0,7.15-3.53q2.55-3.53,2.56-9.49,0-6.23-2.49-9.84a8,8,0,0,0-7-3.61,8.41,8.41,0,0,0-7.23,3.7A16.16,16.16,0,0,0,391.42,135Z"/><path d="M453.74,154.8h-9.89l-11.1-17.4a12.35,12.35,0,0,1-1-2.08h-.12V154.8h-7.81V115h7.81V133.8h.12a21.32,21.32,0,0,1,1-2.13L443.33,115h9.32l-13.11,19Z"/><path d="M463.91,115V154.8H456.1V115Z"/><path d="M503.66,154.8h-8l-15.52-25.75a29.83,29.83,0,0,1-1.75-3.24h-.12q.21,2.06.21,6.35V154.8h-7.41V115h8.52l15,25c1,1.67,1.6,2.72,1.82,3.16h.12a40.32,40.32,0,0,1-.24-5.5V115h7.41Z"/><path d="M540.66,152.13a24.42,24.42,0,0,1-13.2,3.36q-8.76,0-13.82-5.34t-5.06-14.62q0-9.41,5.57-15.31t14.68-5.9a26.85,26.85,0,0,1,10.25,1.8v8a19.06,19.06,0,0,0-10.41-2.7,10.87,10.87,0,0,0-8.59,3.75q-3.3,3.75-3.29,9.9t3,9.74a10.07,10.07,0,0,0,8.1,3.49,10.61,10.61,0,0,0,5-1v-8.17h-7.41v-6.81h15.21Z"/><path d="M591,154.8H583.2V138.38H567.58V154.8h-7.81V115h7.81v16.06H583.2V115H591Z"/><path d="M630.07,154.8h-8.52l-2.74-9.12H605.48l-2.69,9.12h-8.47L607.73,115h9.18ZM617,139.12l-4.16-13.8a16.3,16.3,0,0,1-.57-3.47H612a16.2,16.2,0,0,1-.64,3.37l-4.19,13.9Z"/><path d="M660.17,119.59l-18.75,28.27h18.72v6.94H630.85v-4.73l19.07-28.14H632.27V115h27.9Z"/><path d="M696.11,154.8h-8.52l-2.75-9.12H671.52l-2.7,9.12h-8.47L673.77,115H683ZM683,139.12l-4.17-13.8a16.3,16.3,0,0,1-.57-3.47h-.21a15.57,15.57,0,0,1-.64,3.37l-4.19,13.9Z"/><path d="M729.68,154.8h-9l-5.75-10.36a15.61,15.61,0,0,0-2.91-4.13,3.78,3.78,0,0,0-2.42-.93h-2.37V154.8h-7.8V115h12.85q13.08,0,13.08,10.8a11.24,11.24,0,0,1-2.19,7,11.54,11.54,0,0,1-6,4.09v.1q2.54.93,5.61,6.06Zm-22.44-33.36V132.9h3.84a5.81,5.81,0,0,0,4.41-1.73,6,6,0,0,0,1.67-4.33q0-5.4-5.94-5.4Z"/><path d="M732,154.8V115h12.66q19.51,0,19.52,19.41,0,9.22-5.46,14.81t-14.11,5.59Zm7.81-32.87v25.93H744a11,11,0,0,0,8.73-3.6q3.16-3.58,3.17-9.74,0-5.93-3.31-9.26a11.63,11.63,0,0,0-8.62-3.33Z"/><path d="M318.9,215.1V184.59h8.35a8.89,8.89,0,0,1,6,1.92,6.39,6.39,0,0,1,2.24,5.09,7.68,7.68,0,0,1-1.33,4.45,7.18,7.18,0,0,1-3.66,2.74v.08a7,7,0,0,1,4.63,2.35,7.51,7.51,0,0,1,1.73,5.07,8.31,8.31,0,0,1-2.63,6.38,9.55,9.55,0,0,1-6.74,2.43ZM322.57,188v9.55h3.34a5.92,5.92,0,0,0,4.17-1.39,5,5,0,0,0,1.51-3.85q0-4.31-5.35-4.31Zm0,13v10.63H327a6.35,6.35,0,0,0,4.45-1.43,5.07,5.07,0,0,0,1.57-4c0-3.5-2.21-5.24-6.62-5.24Z"/><path d="M357.53,205.19h-14.2a8.16,8.16,0,0,0,1.78,5.39,6,6,0,0,0,4.71,1.9,9.63,9.63,0,0,0,6.26-2.34v3.44a11.48,11.48,0,0,1-7.1,2,8.41,8.41,0,0,1-6.87-3q-2.48-3-2.47-8.31a12.45,12.45,0,0,1,2.71-8.26,8.4,8.4,0,0,1,6.72-3.24,7.58,7.58,0,0,1,6.22,2.74c1.49,1.83,2.24,4.4,2.24,7.69Zm-3.6-3.09a7.23,7.23,0,0,0-1.3-4.57,4.37,4.37,0,0,0-3.61-1.61,4.9,4.9,0,0,0-3.72,1.71,8.22,8.22,0,0,0-2,4.47Z"/><path d="M391.31,213.84a15.85,15.85,0,0,1-7.87,1.77,12.31,12.31,0,0,1-9.76-4.17q-3.66-4.16-3.65-11,0-7.37,4.11-11.86a13.54,13.54,0,0,1,10.43-4.49,16.1,16.1,0,0,1,6.74,1.24v4.12a12.86,12.86,0,0,0-6.7-1.81,9.83,9.83,0,0,0-7.74,3.39q-3,3.4-3,9.17,0,5.48,2.79,8.69a9.18,9.18,0,0,0,7.3,3.22,13.12,13.12,0,0,0,7.34-2Z"/><path d="M396,194.83a12.23,12.23,0,0,1,7-2q7.35,0,7.34,8.27v14h-3.56v-3.37h-.09a6.71,6.71,0,0,1-6.22,3.88,6.4,6.4,0,0,1-4.69-1.71,6.22,6.22,0,0,1-1.74-4.63q0-6.11,6.73-7.11l6-.91q0-5.33-4.11-5.33a9.84,9.84,0,0,0-6.65,2.64Zm6,10a5.86,5.86,0,0,0-3.44,1.34,3.79,3.79,0,0,0-.94,2.75,3.33,3.33,0,0,0,1,2.54,3.74,3.74,0,0,0,2.71,1,4.87,4.87,0,0,0,3.87-1.77,6.59,6.59,0,0,0,1.52-4.45v-2.09Z"/><path d="M426.15,197.14a4.18,4.18,0,0,0-5.93,1.41,10,10,0,0,0-1.35,5.52v11h-3.6V193.32h3.6v4.43h.07c1-3.2,2.8-4.81,5.32-4.81a4.71,4.71,0,0,1,1.89.3Z"/><path d="M444.6,205.19H430.4a8.16,8.16,0,0,0,1.78,5.39,6,6,0,0,0,4.71,1.9,9.63,9.63,0,0,0,6.26-2.34v3.44a11.48,11.48,0,0,1-7.1,2,8.41,8.41,0,0,1-6.87-3q-2.48-3-2.47-8.31a12.45,12.45,0,0,1,2.71-8.26,8.4,8.4,0,0,1,6.72-3.24,7.58,7.58,0,0,1,6.22,2.74c1.49,1.83,2.24,4.4,2.24,7.69ZM441,202.1a7.23,7.23,0,0,0-1.3-4.57,4.37,4.37,0,0,0-3.61-1.61,4.88,4.88,0,0,0-3.72,1.71,8.15,8.15,0,0,0-2,4.47Z"/><path d="M458.77,186.15a4.35,4.35,0,0,0-2.18-.57c-2.25,0-3.38,1.49-3.38,4.49v3.25H458v3.19h-4.75V215.1h-3.56V196.51h-3.46v-3.19h3.46v-3.43a7.71,7.71,0,0,1,1.88-5.5,6.27,6.27,0,0,1,4.78-2,6.63,6.63,0,0,1,2.46.37Z"/><path d="M477.13,215.1h-3.62v-3.43h-.07a6.63,6.63,0,0,1-6.25,3.94q-7.21,0-7.21-9.26v-13h3.55v12.46q0,6.65,4.74,6.64a4.6,4.6,0,0,0,3.8-1.86,7.46,7.46,0,0,0,1.44-4.7V193.32h3.62Z"/><path d="M482.5,215.1V182.86h3.59V215.1Z"/><path d="M500.24,204.44q0-5.38,2.81-8.51a9.72,9.72,0,0,1,7.61-3.12,9,9,0,0,1,7.17,3q2.59,3,2.59,8.3a12.18,12.18,0,0,1-2.77,8.33,9.38,9.38,0,0,1-7.43,3.17,9.2,9.2,0,0,1-7.26-3.07A11.79,11.79,0,0,1,500.24,204.44Zm3.67-.11a9.09,9.09,0,0,0,1.77,5.92,5.82,5.82,0,0,0,4.76,2.17,5.56,5.56,0,0,0,4.7-2.12,9.88,9.88,0,0,0,1.61-6.07,10,10,0,0,0-1.61-6.11,5.53,5.53,0,0,0-4.7-2.12,5.76,5.76,0,0,0-4.78,2.22A9.67,9.67,0,0,0,503.91,204.33Z"/><path d="M534.14,186.15a4.39,4.39,0,0,0-2.19-.57c-2.25,0-3.37,1.49-3.37,4.49v3.25h4.75v3.19h-4.75V215.1H525V196.51h-3.47v-3.19H525v-3.43a7.71,7.71,0,0,1,1.88-5.5,6.25,6.25,0,0,1,4.78-2,6.63,6.63,0,0,1,2.46.37Z"/><path d="M777.92,132.83a12.28,12.28,0,0,1,7-2q7.33,0,7.34,8.27v14h-3.56v-3.37h-.09a6.72,6.72,0,0,1-6.22,3.88,6.42,6.42,0,0,1-4.7-1.71,6.22,6.22,0,0,1-1.74-4.63q0-6.11,6.73-7.11l6-.91q0-5.33-4.11-5.33a9.85,9.85,0,0,0-6.66,2.64Zm6,10a5.83,5.83,0,0,0-3.44,1.34,3.8,3.8,0,0,0-1,2.75,3.33,3.33,0,0,0,1,2.54,3.74,3.74,0,0,0,2.71,1,4.87,4.87,0,0,0,3.87-1.77,6.59,6.59,0,0,0,1.53-4.45v-2.09Z"/><path d="M814.34,153.1h-3.57V140.71c0-4.48-1.53-6.71-4.57-6.71a4.78,4.78,0,0,0-3.89,1.89,7.4,7.4,0,0,0-1.52,4.78V153.1h-3.6V131.32h3.6v3.6h.07a7.25,7.25,0,0,1,6.66-4.11,6,6,0,0,1,5.08,2.29q1.74,2.29,1.74,6.69Z"/><path d="M836.94,153.1h-3.6v-3.63h-.07a7.83,7.83,0,0,1-13,1.2,12.69,12.69,0,0,1-2.28-7.95,13.63,13.63,0,0,1,2.57-8.66,8.14,8.14,0,0,1,6.71-3.25,6.34,6.34,0,0,1,6,3.46h.07V120.86h3.6Zm-3.58-13a6.24,6.24,0,0,0-1.6-4.38,5.13,5.13,0,0,0-4-1.76,5.26,5.26,0,0,0-4.51,2.29,10.51,10.51,0,0,0-1.65,6.25,9.38,9.38,0,0,0,1.59,5.76,5,5,0,0,0,4.23,2.12,5.18,5.18,0,0,0,4.25-2.08,8,8,0,0,0,1.65-5.17Z"/><path d="M340.11,273.1h-4.35l-14.29-23.73a11.73,11.73,0,0,1-1-2h-.11a41,41,0,0,1,.14,4.27V273.1H316.9V242.59h4.61l13.9,23.32a21,21,0,0,1,1.17,2.11h.08a34.76,34.76,0,0,1-.19-4.45v-21h3.64Z"/><path d="M344.61,262.44q0-5.38,2.81-8.51a9.72,9.72,0,0,1,7.61-3.12,9,9,0,0,1,7.17,3q2.6,3,2.59,8.3a12.18,12.18,0,0,1-2.77,8.33,9.38,9.38,0,0,1-7.43,3.17,9.2,9.2,0,0,1-7.26-3.07A11.79,11.79,0,0,1,344.61,262.44Zm3.67-.11a9.09,9.09,0,0,0,1.77,5.92,5.82,5.82,0,0,0,4.76,2.17,5.56,5.56,0,0,0,4.7-2.12,9.88,9.88,0,0,0,1.61-6.07,10,10,0,0,0-1.61-6.11,5.53,5.53,0,0,0-4.7-2.12,5.76,5.76,0,0,0-4.78,2.22A9.67,9.67,0,0,0,348.28,262.33Z"/><path d="M378.58,272.88a6.24,6.24,0,0,1-3.17.69q-5.45,0-5.45-6.48V254.51h-3.49v-3.19H370v-5.24l3.58-1.22v6.46h5v3.19h-5V266.4a5.33,5.33,0,0,0,.67,3.07,2.62,2.62,0,0,0,2.26.93,3.22,3.22,0,0,0,2.11-.73Z"/><path d="M402.32,244.15a4.35,4.35,0,0,0-2.18-.57c-2.25,0-3.37,1.49-3.37,4.49v3.25h4.75v3.19h-4.75V273.1h-3.56V254.51h-3.47v-3.19h3.47v-3.43a7.66,7.66,0,0,1,1.88-5.5,6.24,6.24,0,0,1,4.78-2,6.61,6.61,0,0,1,2.45.37Z"/><path d="M402.58,262.44q0-5.38,2.8-8.51a9.73,9.73,0,0,1,7.62-3.12,9,9,0,0,1,7.16,3q2.59,3,2.59,8.3a12.18,12.18,0,0,1-2.77,8.33,9.36,9.36,0,0,1-7.42,3.17,9.21,9.21,0,0,1-7.27-3.07A11.79,11.79,0,0,1,402.58,262.44Zm3.66-.11a9,9,0,0,0,1.78,5.92,5.79,5.79,0,0,0,4.76,2.17,5.54,5.54,0,0,0,4.69-2.12,9.82,9.82,0,0,0,1.62-6.07,10,10,0,0,0-1.62-6.11,5.51,5.51,0,0,0-4.69-2.12,5.75,5.75,0,0,0-4.78,2.22A9.61,9.61,0,0,0,406.24,262.33Z"/><path d="M437.68,255.14a4.16,4.16,0,0,0-5.92,1.41,10,10,0,0,0-1.36,5.52v11h-3.6V251.32h3.6v4.43h.07c1-3.2,2.8-4.81,5.32-4.81a4.71,4.71,0,0,1,1.89.3Z"/><path d="M464.25,272.11a10.13,10.13,0,0,1-5.61,1.5,9,9,0,0,1-7.08-3,11.41,11.41,0,0,1-2.68-7.86,12.59,12.59,0,0,1,2.89-8.64,9.79,9.79,0,0,1,7.73-3.27,9.94,9.94,0,0,1,4.77,1.06v3.82A7.5,7.5,0,0,0,459.5,254a6.25,6.25,0,0,0-5,2.29,9.17,9.17,0,0,0-1.93,6.11,8.74,8.74,0,0,0,1.82,5.89,6.16,6.16,0,0,0,4.93,2.13,7.84,7.84,0,0,0,4.95-1.85Z"/><path d="M485.19,273.1h-3.57V260.57q0-6.57-4.55-6.57a4.75,4.75,0,0,0-3.87,1.92,7.46,7.46,0,0,0-1.54,4.83V273.1h-3.6V240.86h3.6v14h.07a7.26,7.26,0,0,1,6.62-4.09q6.84,0,6.84,8.88Z"/><path d="M489.74,243.64a2.42,2.42,0,0,1,.65-1.73,2.11,2.11,0,0,1,1.6-.69,2.25,2.25,0,0,1,1.65.68,2.42,2.42,0,0,1,.67,1.74,2.35,2.35,0,0,1-.67,1.7A2.25,2.25,0,0,1,492,246a2.14,2.14,0,0,1-1.61-.68A2.36,2.36,0,0,1,489.74,243.64Zm.42,29.46V251.32h3.59V273.1Z"/><path d="M499.14,273.1V240.86h3.6V273.1Z"/><path d="M525.75,273.1h-3.59v-3.63h-.08a7.83,7.83,0,0,1-13,1.2,12.68,12.68,0,0,1-2.27-7.95,13.63,13.63,0,0,1,2.56-8.66,8.16,8.16,0,0,1,6.72-3.25,6.32,6.32,0,0,1,6,3.46h.08V240.86h3.59Zm-3.57-13a6.25,6.25,0,0,0-1.61-4.38,5.12,5.12,0,0,0-4-1.76,5.25,5.25,0,0,0-4.51,2.29,10.51,10.51,0,0,0-1.66,6.25A9.38,9.38,0,0,0,512,268.3a5,5,0,0,0,4.23,2.12,5.2,5.2,0,0,0,4.26-2.08,8,8,0,0,0,1.65-5.17Z"/><path d="M542,255.14a4.18,4.18,0,0,0-5.93,1.41,10,10,0,0,0-1.36,5.52v11h-3.59V251.32h3.59v4.43h.08c1-3.2,2.8-4.81,5.32-4.81a4.71,4.71,0,0,1,1.89.3Z"/><path d="M560.49,263.19h-14.2a8.16,8.16,0,0,0,1.78,5.39,6,6,0,0,0,4.71,1.9,9.63,9.63,0,0,0,6.26-2.34v3.44a11.5,11.5,0,0,1-7.1,2,8.41,8.41,0,0,1-6.87-3q-2.48-3-2.47-8.31a12.45,12.45,0,0,1,2.71-8.26,8.4,8.4,0,0,1,6.72-3.24,7.58,7.58,0,0,1,6.22,2.74c1.49,1.83,2.24,4.4,2.24,7.69Zm-3.6-3.09a7.29,7.29,0,0,0-1.3-4.57,4.38,4.38,0,0,0-3.62-1.61,4.88,4.88,0,0,0-3.71,1.71,8.15,8.15,0,0,0-2,4.47Z"/><path d="M581.41,273.1h-3.58V260.71c0-4.48-1.52-6.71-4.56-6.71a4.77,4.77,0,0,0-3.89,1.89,7.35,7.35,0,0,0-1.53,4.78V273.1h-3.59V251.32h3.59v3.6h.08a7.25,7.25,0,0,1,6.66-4.11,6,6,0,0,1,5.08,2.29q1.74,2.29,1.74,6.69Z"/><path d="M613.24,273.1h-3.61v-3.43h-.07a6.64,6.64,0,0,1-6.26,3.94q-7.2,0-7.21-9.26v-13h3.56v12.46q0,6.64,4.73,6.64a4.58,4.58,0,0,0,3.8-1.86,7.4,7.4,0,0,0,1.45-4.7V251.32h3.61Z"/><path d="M635.78,273.1h-3.57V260.71c0-4.48-1.53-6.71-4.57-6.71a4.77,4.77,0,0,0-3.89,1.89,7.34,7.34,0,0,0-1.52,4.78V273.1h-3.6V251.32h3.6v3.6h.07a7.25,7.25,0,0,1,6.66-4.11A6,6,0,0,1,634,253.1q1.74,2.29,1.74,6.69Z"/><path d="M658.38,273.1h-3.6v-3.63h-.07a7.84,7.84,0,0,1-13,1.2,12.75,12.75,0,0,1-2.27-7.95,13.63,13.63,0,0,1,2.57-8.66,8.14,8.14,0,0,1,6.71-3.25,6.34,6.34,0,0,1,6,3.46h.07V240.86h3.6Zm-3.58-13a6.2,6.2,0,0,0-1.61-4.38,5.1,5.1,0,0,0-4-1.76,5.25,5.25,0,0,0-4.51,2.29,10.51,10.51,0,0,0-1.65,6.25,9.38,9.38,0,0,0,1.59,5.76,5,5,0,0,0,4.22,2.12,5.18,5.18,0,0,0,4.26-2.08,8,8,0,0,0,1.65-5.17Z"/><path d="M680.31,263.19h-14.2a8.21,8.21,0,0,0,1.78,5.39,6,6,0,0,0,4.72,1.9,9.61,9.61,0,0,0,6.25-2.34v3.44a11.46,11.46,0,0,1-7.1,2,8.44,8.44,0,0,1-6.87-3q-2.46-3-2.46-8.31a12.5,12.5,0,0,1,2.7-8.26,8.44,8.44,0,0,1,6.73-3.24,7.56,7.56,0,0,1,6.21,2.74c1.5,1.83,2.24,4.4,2.24,7.69Zm-3.59-3.09a7.29,7.29,0,0,0-1.31-4.57,4.36,4.36,0,0,0-3.61-1.61,4.86,4.86,0,0,0-3.71,1.71,8.16,8.16,0,0,0-2,4.47Z"/><path d="M695,255.14a4.16,4.16,0,0,0-5.92,1.41,10,10,0,0,0-1.36,5.52v11h-3.6V251.32h3.6v4.43h.07c1-3.2,2.8-4.81,5.32-4.81a4.71,4.71,0,0,1,1.89.3Z"/><path d="M706.93,268a10.05,10.05,0,0,0,6.59,2.42,6.71,6.71,0,0,0,4.65-1.55,5.31,5.31,0,0,0,1.71-4.14q0-5.79-7.72-5.79h-2.37v-3.19h2.26q6.84,0,6.84-5.44c0-3.34-1.74-5-5.23-5a8.71,8.71,0,0,0-5.63,2.17v-3.65a12.13,12.13,0,0,1,6.51-1.73,8.26,8.26,0,0,1,5.84,2,6.9,6.9,0,0,1,2.2,5.29q0,6-5.69,7.7v.08a7.39,7.39,0,0,1,4.87,2.33,7.09,7.09,0,0,1,1.79,4.93,8.56,8.56,0,0,1-2.76,6.64,10.48,10.48,0,0,1-7.35,2.52,11.71,11.71,0,0,1-6.51-1.62Z"/><path d="M755.15,251.32l-9.21,25.07q-2.58,7-7.25,7a7.31,7.31,0,0,1-2.29-.32v-3.38a5.4,5.4,0,0,0,2,.43c1.62,0,2.84-1,3.65-3.07l1.55-4-8-21.74h4L745,267.68l.44,1.79h.09c.07-.4.22-1,.44-1.75l5.54-16.4Z"/><path d="M773.83,263.19h-14.2a8.21,8.21,0,0,0,1.78,5.39,6,6,0,0,0,4.72,1.9,9.61,9.61,0,0,0,6.25-2.34v3.44a11.46,11.46,0,0,1-7.1,2,8.44,8.44,0,0,1-6.87-3q-2.46-3-2.46-8.31a12.5,12.5,0,0,1,2.7-8.26,8.44,8.44,0,0,1,6.73-3.24,7.56,7.56,0,0,1,6.21,2.74c1.5,1.83,2.24,4.4,2.24,7.69Zm-3.59-3.09a7.29,7.29,0,0,0-1.31-4.57,4.36,4.36,0,0,0-3.61-1.61,4.86,4.86,0,0,0-3.71,1.71,8.16,8.16,0,0,0-2,4.47Z"/><path d="M778.08,252.83a12.28,12.28,0,0,1,7-2q7.33,0,7.34,8.27v14h-3.56v-3.37h-.09a6.72,6.72,0,0,1-6.22,3.88,6.44,6.44,0,0,1-4.7-1.71,6.22,6.22,0,0,1-1.74-4.63q0-6.11,6.73-7.11l6-.91q0-5.33-4.11-5.33a9.88,9.88,0,0,0-6.66,2.64Zm6,10a5.86,5.86,0,0,0-3.44,1.34,3.79,3.79,0,0,0-.94,2.75,3.36,3.36,0,0,0,1,2.54,3.76,3.76,0,0,0,2.72,1,4.9,4.9,0,0,0,3.87-1.77,6.64,6.64,0,0,0,1.52-4.45v-2.09Z"/><path d="M808.23,255.14a4.16,4.16,0,0,0-5.92,1.41,10,10,0,0,0-1.36,5.52v11h-3.59V251.32H801v4.43H801c1-3.2,2.8-4.81,5.31-4.81a4.71,4.71,0,0,1,1.89.3Z"/><path d="M809.83,268.39a9.33,9.33,0,0,0,5.85,2.11q4.2,0,4.2-3a2.65,2.65,0,0,0-.92-2.07,13.88,13.88,0,0,0-3.72-1.94,10.66,10.66,0,0,1-4.39-2.89,5.83,5.83,0,0,1-1-3.45,5.56,5.56,0,0,1,2.29-4.64,9,9,0,0,1,5.62-1.74,12,12,0,0,1,4.81,1v3.72a8.86,8.86,0,0,0-5.16-1.57,4.65,4.65,0,0,0-2.81.8,2.54,2.54,0,0,0-1.08,2.13,2.64,2.64,0,0,0,.78,2,13.36,13.36,0,0,0,3.46,1.87,11.69,11.69,0,0,1,4.59,2.82,5.52,5.52,0,0,1,1.19,3.6,5.58,5.58,0,0,1-2.29,4.72,9.53,9.53,0,0,1-5.91,1.72,11.34,11.34,0,0,1-5.5-1.28Z"/><path d="M826.31,271.07a2.53,2.53,0,0,1,.68-1.79,2.32,2.32,0,0,1,3.39,0,2.64,2.64,0,0,1,0,3.54,2.23,2.23,0,0,1-1.72.74,2.19,2.19,0,0,1-1.68-.74A2.51,2.51,0,0,1,826.31,271.07Z"/><path d="M553.36,207.27a12.38,12.38,0,0,0,8.75,3.64,6.73,6.73,0,0,0,4.18-1.09,3.43,3.43,0,0,0,1.4-2.81,4.24,4.24,0,0,0-1.11-2.79c-.75-.88-2.7-2.07-5.87-3.57q-7.47-3.61-7.47-10.52a9.69,9.69,0,0,1,3.38-7.88,13.62,13.62,0,0,1,9-2.81,19.47,19.47,0,0,1,7.84,1.39v7.28a11.91,11.91,0,0,0-7.51-2.49,7,7,0,0,0-4,1,3.27,3.27,0,0,0-1.5,2.81,3.84,3.84,0,0,0,1,2.59c.69.8,2.38,1.86,5.08,3.21q4.75,2.32,6.54,4.91a10.61,10.61,0,0,1,1.78,6.15c0,3.49-1.09,6.15-3.25,8s-5.25,2.75-9.24,2.75a17.77,17.77,0,0,1-9-2Z"/><path d="M606.21,216.43h-6.79v-15H585.83v15H579V180.05h6.79v14.68h13.59V180.05h6.79Z"/><path d="M640.18,216.43h-7.41l-2.39-8.34H618.8l-2.35,8.34h-7.37l11.67-36.38h8Zm-11.4-14.33-3.62-12.61a15.49,15.49,0,0,1-.5-3.17h-.18a15.51,15.51,0,0,1-.56,3.08l-3.64,12.7Z"/><path d="M669.38,216.43h-7.82l-5-9.47a14.09,14.09,0,0,0-2.53-3.78,3.2,3.2,0,0,0-2.1-.84h-2v14.09h-6.8V180.05h11.18q11.38,0,11.38,9.87a10.62,10.62,0,0,1-1.9,6.36,10.07,10.07,0,0,1-5.24,3.73v.1c1.47.56,3.09,2.41,4.88,5.54ZM649.87,186v10.47h3.33a5,5,0,0,0,3.84-1.58,5.64,5.64,0,0,0,1.45-4q0-4.94-5.17-4.93Z"/><path d="M678.16,203.75v12.68h-6.79V180.05h11q11.89,0,11.89,11.51a11.72,11.72,0,0,1-3.59,9,12.18,12.18,0,0,1-9,3.23Zm0-17.69v11.75h2.94q6,0,6-5.94t-5.93-5.81Z"/><path d="M728.22,216.43H709.35V180.05h18.13v6.34H716.14V195h10.53v6.32H716.14v8.81h12.08Z"/><path d="M732.31,216.43V180.05h11q17,0,17,17.73,0,8.43-4.76,13.54a16,16,0,0,1-12.26,5.11Zm6.79-30v23.7h3.7a9.39,9.39,0,0,0,7.6-3.29q2.75-3.28,2.75-8.9,0-5.43-2.88-8.47a9.86,9.86,0,0,0-7.49-3Z"/><path d="M790.44,214A20.44,20.44,0,0,1,779,217.06q-7.62,0-12-4.88t-4.41-13.36q0-8.59,4.85-14a16.36,16.36,0,0,1,12.77-5.39,22.28,22.28,0,0,1,8.91,1.65v7.35a15.93,15.93,0,0,0-9-2.47,9.27,9.27,0,0,0-7.48,3.43,13.68,13.68,0,0,0-2.86,9q0,5.7,2.59,8.9a8.57,8.57,0,0,0,7,3.19,8.83,8.83,0,0,0,4.34-.94v-7.46h-6.44V195.9h13.23Z"/><path d="M814.51,216.43H795.64V180.05h18.13v6.34H802.43V195H813v6.32H802.43v8.81h12.08Z"/><path d="M817.14,207.27a12.38,12.38,0,0,0,8.75,3.64,6.73,6.73,0,0,0,4.18-1.09,3.43,3.43,0,0,0,1.4-2.81,4.25,4.25,0,0,0-1.12-2.79q-1.11-1.32-5.86-3.57Q817,197,817,190.13a9.69,9.69,0,0,1,3.38-7.88,13.62,13.62,0,0,1,9-2.81,19.51,19.51,0,0,1,7.84,1.39v7.28a11.92,11.92,0,0,0-7.52-2.49,7,7,0,0,0-4,1,3.27,3.27,0,0,0-1.5,2.81,3.84,3.84,0,0,0,1,2.59c.68.8,2.38,1.86,5.08,3.21q4.76,2.32,6.54,4.91a10.61,10.61,0,0,1,1.78,6.15c0,3.49-1.09,6.15-3.25,8s-5.25,2.75-9.25,2.75a17.73,17.73,0,0,1-9-2Z"/><path d="M52.66,195.71q0-12,4.49-18.3t13-6.32q16.19,0,16.19,23.55,0,11.6-4.4,17.9t-12.7,6.3Q52.66,218.84,52.66,195.71Zm9.92-.24q0,16,6.94,16T76.34,195q0-16.51-6.64-16.52Q62.58,178.48,62.58,195.47Z"/><path d="M109.5,203.76H91.58V197H109.5Z"/><path d="M117.13,208a18,18,0,0,0,11,3.46,10.39,10.39,0,0,0,6.3-1.73,5.74,5.74,0,0,0,2.33-4.92,5.54,5.54,0,0,0-2.77-5c-1.85-1.16-4.44-1.73-7.78-1.73H122v-7.43h3.85q9.46,0,9.46-6.25,0-5.91-7.25-5.91a16.14,16.14,0,0,0-9.18,3v-8a24.82,24.82,0,0,1,11.43-2.48q6.66,0,10.82,3a9.78,9.78,0,0,1,4.15,8.39q0,9.06-9.33,11.38V194a12.56,12.56,0,0,1,7.85,3.53,10,10,0,0,1,2.94,7.29,12.16,12.16,0,0,1-4.9,10.29q-4.89,3.69-13,3.69-7.25,0-11.67-2.35Z"/><g class="cls-5"><path class="cls-6" d="M216.61,239.61l1.2-1.18,2.91,8.33a4.4,4.4,0,0,1,.3,2,3.28,3.28,0,0,1-2.37,2.38l-.31-1.21a1.82,1.82,0,0,0,.93-.52,1.23,1.23,0,0,0,.4-.79,3.51,3.51,0,0,0-.24-1.31l-.17-.55L212,244.21l1.31-1.3,5.41,2Z"/><path class="cls-6" d="M217.83,236.5a.82.82,0,0,1-.65-.24.76.76,0,0,1-.22-.64,1,1,0,0,1,.33-.68,1.08,1.08,0,0,1,.7-.34.82.82,0,0,1,.65.23.79.79,0,0,1,.21.66,1.1,1.1,0,0,1-1,1Zm6.85,4.78-1.16,1.13-4.8-4.87,1.16-1.14Z"/><path class="cls-6" d="M226.4,233.92l5.22.53-1.42,1.39-3.87-.41-.07,1.85,1.22,1.24-1.16,1.13-7-7.14,1.15-1.14,4.63,4.7.12-4.9,1.38-1.36Z"/><path class="cls-6" d="M231.34,225.48a3,3,0,0,1,1.68-.06,3,3,0,0,1,1.44.84,3.24,3.24,0,0,1,.46.57l-4.08,4a2.11,2.11,0,0,0,1.62.57,2.53,2.53,0,0,0,1.54-.79,2.08,2.08,0,0,0,.71-1.95l1.28-.43a2.27,2.27,0,0,1-.08,1.63,4.92,4.92,0,0,1-1.13,1.65,4.74,4.74,0,0,1-1.74,1.13,3.43,3.43,0,0,1-1.9.15,3.49,3.49,0,0,1-1.76-1,3.41,3.41,0,0,1-.95-1.75,3.38,3.38,0,0,1,.18-1.88,4.54,4.54,0,0,1,1.1-1.67A4,4,0,0,1,231.34,225.48Zm-1.53,3.19a1.9,1.9,0,0,0,.34,1.41l2.89-2.85a1.71,1.71,0,0,0-1.28-.46,2,2,0,0,0-1.26.62A2.29,2.29,0,0,0,229.81,228.67Z"/><path class="cls-6" d="M241.57,224.26a3.5,3.5,0,0,1-1,1.59,3.11,3.11,0,0,1-1.73,1,2.26,2.26,0,0,1-1.87-.86l-2.36-2.4-1,1-.82-.82,1-1-1.39-1.41,1.15-1.13,1.38,1.41,1.72-1.69.81.83-1.71,1.69,2.23,2.26c.66.68,1.29.72,1.89.13a2.29,2.29,0,0,0,.58-.92Z"/><path class="cls-6" d="M241.64,215l1.15-1.14,4.8,4.88-1,1a9.94,9.94,0,0,0-.85-.71,2.35,2.35,0,0,1-.12,1.43,3.53,3.53,0,0,1-.88,1.3,3,3,0,0,1-2,1,2.72,2.72,0,0,1-2-.94l-2.92-3,1.14-1.13,2.65,2.69a2.26,2.26,0,0,0,1.32.74,1.56,1.56,0,0,0,1.29-.54,2.22,2.22,0,0,0,.7-1.43,1.82,1.82,0,0,0-.6-1.49Z"/></g><g class="cls-5"><path class="cls-7" d="M353.64,134.1h.91l-2.05,4.31a2.27,2.27,0,0,1-.62.87,1.52,1.52,0,0,1-.92.25,1.54,1.54,0,0,1-.9-.24l.34-.58a1,1,0,0,0,.56.15.68.68,0,0,0,.45-.15,2,2,0,0,0,.41-.59l.14-.28-1.86-3.75h1l1.3,2.83Z"/><path class="cls-7" d="M355.29,133.36a.43.43,0,0,1,0-.67.6.6,0,0,1,.39-.14.67.67,0,0,1,.4.14.44.44,0,0,1,.16.34.42.42,0,0,1-.17.33.61.61,0,0,1-.78,0Zm.82,4.44h-.87v-3.7h.88Z"/><path class="cls-7" d="M359.57,135.63l1.81,2.18h-1.07L359,136.18l-.73.68v.94h-.88v-5.42h.88v3.56l1.91-1.83h1.05Z"/><path class="cls-7" d="M364.68,134.25a1.67,1.67,0,0,1,.67.62,1.63,1.63,0,0,1,.24.87,2.08,2.08,0,0,1,0,.39h-3.09a1.13,1.13,0,0,0,.4.84,1.46,1.46,0,0,0,.9.28,1.12,1.12,0,0,0,1-.48l.65.32a1.2,1.2,0,0,1-.64.59,2.65,2.65,0,0,1-1.07.21,2.56,2.56,0,0,1-1.09-.23,1.89,1.89,0,0,1-.79-.66,1.85,1.85,0,0,1-.29-1.06,1.83,1.83,0,0,1,.29-1,1.89,1.89,0,0,1,.79-.66,2.45,2.45,0,0,1,1.06-.22A2.18,2.18,0,0,1,364.68,134.25Zm-1.8.65a1,1,0,0,0-.41.67h2.2a1,1,0,0,0-.32-.66,1,1,0,0,0-.72-.24A1.19,1.19,0,0,0,362.88,134.9Z"/><path class="cls-7" d="M369.08,137.67a1.92,1.92,0,0,1-1,.23,1.63,1.63,0,0,1-1-.3,1.19,1.19,0,0,1-.39-1v-1.82h-.75v-.62h.75v-1.07h.87v1.07h1.3v.63h-1.3v1.72c0,.52.23.77.68.77a1.2,1.2,0,0,0,.57-.13Z"/><path class="cls-7" d="M372.63,134.12h.88v3.69h-.77a4.67,4.67,0,0,0-.06-.6,1.28,1.28,0,0,1-.59.51,1.87,1.87,0,0,1-.83.17,1.61,1.61,0,0,1-1.14-.39,1.49,1.49,0,0,1-.42-1.14v-2.25h.87v2a1.24,1.24,0,0,0,.23.79.86.86,0,0,0,.7.28,1.19,1.19,0,0,0,.81-.28,1,1,0,0,0,.34-.81Z"/></g></g></g></g></svg>