<svg xmlns="http://www.w3.org/2000/svg" id="图层_1" data-name="图层 1" viewBox="0 0 1000 1000" width="1000" height="1000" preserveAspectRatio="none"><defs><style>.cls-1{opacity:0.05;}.cls-2{fill:#9e9e9f;}</style></defs><polygon points="367 146 309 223 123 223 123 828 48 878 48 146 367 146"/><rect x="113" y="475" width="198" height="75"/><path d="M958,293S844,135,658,137,288.09,279.61,278,476.3,356.68,802.24,508,866c159,67,362,4,453-132l-61-47S766,886,539,794,343.44,459.72,369,407c32-66,87-156,213-186s262,34,313,117Z"/><path d="M828,387l-63,47s-93-108-196-30-50,218,51,243,146-51,146-51l65,43s-76.13,129.12-247,80C424,673,411.63,489.38,470,393,513,322,679,220,828,387Z"/><g class="cls-1"><path class="cls-2" d="M113.64,178.27h2l-4.46,9.38a5,5,0,0,1-1.36,1.88,3.87,3.87,0,0,1-4,0l.75-1.25a2.24,2.24,0,0,0,1.2.32,1.52,1.52,0,0,0,1-.33,4.06,4.06,0,0,0,.88-1.29l.32-.61-4-8.15h2.17l2.84,6.17Z"/><path class="cls-2" d="M117.23,176.67a1,1,0,0,1-.35-.73.93.93,0,0,1,.35-.72,1.16,1.16,0,0,1,.84-.3,1.31,1.31,0,0,1,.87.3.91.91,0,0,1,0,1.45,1.31,1.31,0,0,1-1.69,0Zm1.78,9.66h-1.9v-8.05H119Z"/><path class="cls-2" d="M126.54,181.6l3.94,4.75h-2.34l-2.9-3.54-1.59,1.49v2.05h-1.9v-11.8h1.91v7.76l4.15-4h2.28Z"/><path class="cls-2" d="M137.65,178.61a3.63,3.63,0,0,1,1.46,1.33,3.55,3.55,0,0,1,.52,1.9,4.93,4.93,0,0,1-.09.86h-6.75a2.49,2.49,0,0,0,.89,1.82,3,3,0,0,0,1.94.62,2.44,2.44,0,0,0,2.21-1l1.42.7a2.54,2.54,0,0,1-1.41,1.29,5.73,5.73,0,0,1-2.31.45,5.64,5.64,0,0,1-2.39-.49,4,4,0,0,1-1.71-1.45,4.11,4.11,0,0,1-.64-2.3,4,4,0,0,1,.65-2.25,4.1,4.1,0,0,1,1.7-1.43,5.56,5.56,0,0,1,2.31-.48A4.66,4.66,0,0,1,137.65,178.61ZM133.73,180a2.27,2.27,0,0,0-.88,1.46h4.78A2.08,2.08,0,0,0,137,180a2.4,2.4,0,0,0-1.58-.52A2.71,2.71,0,0,0,133.73,180Z"/><path class="cls-2" d="M147.23,186a4.11,4.11,0,0,1-2.16.5,3.66,3.66,0,0,1-2.23-.64,2.64,2.64,0,0,1-.86-2.27v-3.95h-1.63v-1.36H142V176h1.89v2.32h2.84v1.36h-2.83v3.74c0,1.11.49,1.67,1.48,1.67a2.66,2.66,0,0,0,1.24-.29Z"/><path class="cls-2" d="M155,178.33h1.91v8h-1.69a10.16,10.16,0,0,0-.12-1.3,2.86,2.86,0,0,1-1.28,1.1,4.17,4.17,0,0,1-1.82.36,3.52,3.52,0,0,1-2.48-.85,3.21,3.21,0,0,1-.92-2.47v-4.9h1.89v4.44a2.6,2.6,0,0,0,.5,1.71,1.84,1.84,0,0,0,1.52.62,2.63,2.63,0,0,0,1.76-.62,2.17,2.17,0,0,0,.74-1.75Z"/></g><g class="cls-1"><path class="cls-2" d="M848.16,807.41l1.78-.73-.55,10.09a4.78,4.78,0,0,1-.53,2.21,3.2,3.2,0,0,1-1.61,1.25,3.25,3.25,0,0,1-1.94.24l.2-1.41a2.13,2.13,0,0,0,1.21-.15,1.49,1.49,0,0,0,.77-.66,4.22,4.22,0,0,0,.32-1.5l.06-.66-6.66-5.85,2-.79L848,814Z"/><path class="cls-2" d="M850.8,804.63a.91.91,0,0,1-.58-.53.87.87,0,0,1,0-.78,1.21,1.21,0,0,1,.64-.58,1.25,1.25,0,0,1,.89,0,.88.88,0,0,1,.59.52.93.93,0,0,1-.06.79,1.24,1.24,0,0,1-.66.59A1.19,1.19,0,0,1,850.8,804.63Zm5.18,8-1.72.7-3-7.25,1.72-.71Z"/><path class="cls-2" d="M861,805.64l5.3,2.82-2.1.86-3.92-2.12-.89,1.93.75,1.85-1.72.7L854.09,801l1.72-.71,2.85,7,2.27-5.14,2.05-.84Z"/><path class="cls-2" d="M869.92,798.84a3.51,3.51,0,0,1,1.81.66A3.46,3.46,0,0,1,872.9,801a4.63,4.63,0,0,1,.23.8l-6.08,2.48a2.46,2.46,0,0,0,1.48,1.32,3,3,0,0,0,2-.17,2.35,2.35,0,0,0,1.6-1.76l1.55.1a2.55,2.55,0,0,1-.8,1.69,5.85,5.85,0,0,1-4.25,1.7,3.92,3.92,0,0,1-2.08-.67,4,4,0,0,1-1.42-1.84,3.82,3.82,0,0,1-.25-2.26,3.89,3.89,0,0,1,1-1.92,5.17,5.17,0,0,1,1.9-1.29A4.59,4.59,0,0,1,869.92,798.84Zm-3,2.71a2.2,2.2,0,0,0-.25,1.65l4.31-1.76a2,2,0,0,0-1.16-1.06,2.28,2.28,0,0,0-1.61.12A2.7,2.7,0,0,0,866.91,801.55Z"/><path class="cls-2" d="M881.3,802a4,4,0,0,1-1.77,1.25,3.59,3.59,0,0,1-2.24.24,2.55,2.55,0,0,1-1.61-1.72l-1.46-3.57-1.47.6-.5-1.23,1.47-.6-.86-2.1,1.7-.69.86,2.1,2.56-1,.5,1.23-2.56,1,1.38,3.37c.41,1,1.06,1.33,2,1a2.53,2.53,0,0,0,1-.72Z"/><path class="cls-2" d="M885.42,792.19l1.72-.7,3,7.26-1.52.62a11.33,11.33,0,0,0-.59-1.13,2.79,2.79,0,0,1-.74,1.47,4.48,4.48,0,0,1-1.51,1,3.41,3.41,0,0,1-2.55.14,3.11,3.11,0,0,1-1.74-1.88l-1.8-4.42,1.7-.69,1.63,4a2.59,2.59,0,0,0,1.08,1.36,1.83,1.83,0,0,0,1.6,0A2.54,2.54,0,0,0,887,798a2.1,2.1,0,0,0,0-1.85Z"/></g></svg>