<svg xmlns="http://www.w3.org/2000/svg" viewBox="0 0 755.11 784.04" width="755" height="784" preserveAspectRatio="none"><defs><style>.cls-1{fill:#fff;}.cls-1,.cls-2,.cls-3{stroke:#000;stroke-miterlimit:10;}.cls-1,.cls-2{stroke-width:18.05px;}.cls-2,.cls-3{fill:none;}.cls-3{stroke-width:37.38px;}.cls-4{opacity:0.05;}.cls-5{fill:#9e9e9f;}</style></defs><g id="图层_2" data-name="图层 2"><g id="图层_1-2" data-name="图层 1"><g id="_2" data-name="2"><line class="cls-1" x1="6.57" y1="6.18" x2="728.39" y2="773.12"/><line class="cls-1" x1="748.54" y1="10.92" x2="26.72" y2="777.86"/><rect x="174.49" y="126.7" width="427.94" height="33.51"/><path class="cls-2" d="M583.44,133.48s-31-53.18-131.53-57"/><line class="cls-2" x1="546.01" y1="140.88" x2="515.07" y2="612.65"/><path class="cls-2" d="M453.2,678.38H236.65l-24.49-531L189,139.59S221.18,70,355.24,70"/><rect x="245.67" y="55.81" width="45.11" height="76.05"/><rect x="262.43" y="671.94" width="45.11" height="63.16"/><rect class="cls-2" x="352.66" y="50.65" width="106.98" height="41.25"/><polygon points="488 292.98 488 271.07 338.48 271.07 338.48 312.31 462.22 312.31 488 292.98"/><rect class="cls-2" x="552.45" y="196.31" width="68.32" height="62.52"/><ellipse cx="593.05" cy="115.75" rx="23.85" ry="22.56"/><circle class="cls-3" cx="513.78" cy="665.49" r="54.78"/><circle cx="513.78" cy="665.49" r="27.07"/><g class="cls-4"><path class="cls-5" d="M264.23,139.72h1.33l-3,6.27a3.42,3.42,0,0,1-.91,1.26,2.62,2.62,0,0,1-2.65,0l.5-.84a1.52,1.52,0,0,0,.8.22,1.06,1.06,0,0,0,.67-.22,3.1,3.1,0,0,0,.59-.87l.21-.4-2.71-5.45h1.45l1.9,4.13Z"/><path class="cls-5" d="M266.64,138.64a.61.61,0,0,1,0-1,.83.83,0,0,1,.56-.2.89.89,0,0,1,.58.2.65.65,0,0,1,.23.48.63.63,0,0,1-.24.49.84.84,0,0,1-.58.21A.79.79,0,0,1,266.64,138.64Zm1.19,6.46h-1.28v-5.38h1.28Z"/><path class="cls-5" d="M272.86,141.94l2.63,3.17h-1.56L272,142.74l-1.07,1v1.37h-1.27v-7.89h1.27v5.19l2.77-2.67h1.53Z"/><path class="cls-5" d="M280.29,139.94a2.48,2.48,0,0,1,1,.89,2.39,2.39,0,0,1,.34,1.27,3.25,3.25,0,0,1-.06.57H277a1.7,1.7,0,0,0,.59,1.22,2.06,2.06,0,0,0,1.3.41,1.64,1.64,0,0,0,1.48-.71l.95.47a1.75,1.75,0,0,1-.94.87,3.86,3.86,0,0,1-1.55.3,3.78,3.78,0,0,1-1.6-.33,2.69,2.69,0,0,1-1.14-1,2.9,2.9,0,0,1,0-3,2.8,2.8,0,0,1,1.14-1,3.8,3.8,0,0,1,1.55-.32A3.12,3.12,0,0,1,280.29,139.94Zm-2.62.94a1.48,1.48,0,0,0-.59,1h3.19a1.35,1.35,0,0,0-.45-1,1.58,1.58,0,0,0-1.05-.35A1.84,1.84,0,0,0,277.67,140.88Z"/><path class="cls-5" d="M286.7,144.91a2.8,2.8,0,0,1-1.45.33,2.43,2.43,0,0,1-1.5-.43,1.77,1.77,0,0,1-.57-1.51v-2.65H282.1v-.91h1.09v-1.56h1.26v1.55h1.89v.92h-1.89v2.5c0,.75.33,1.12,1,1.13a1.78,1.78,0,0,0,.83-.2Z"/><path class="cls-5" d="M291.86,139.75h1.28v5.39H292a8.4,8.4,0,0,0-.09-.87,1.88,1.88,0,0,1-.86.74,2.94,2.94,0,0,1-1.21.25,2.43,2.43,0,0,1-1.66-.58,2.1,2.1,0,0,1-.61-1.65v-3.27h1.26v3a1.79,1.79,0,0,0,.33,1.15,1.24,1.24,0,0,0,1,.41,1.8,1.8,0,0,0,1.18-.41,1.45,1.45,0,0,0,.49-1.17Z"/></g><g class="cls-4"><path class="cls-5" d="M499.67,666.43H501l-3,6.26a3.26,3.26,0,0,1-.92,1.26,2.54,2.54,0,0,1-2.64,0l.5-.83a1.52,1.52,0,0,0,.8.21,1,1,0,0,0,.67-.22,2.83,2.83,0,0,0,.58-.86l.21-.41-2.7-5.44H496l1.9,4.13Z"/><path class="cls-5" d="M502.07,665.35a.57.57,0,0,1-.23-.48.62.62,0,0,1,.23-.49.9.9,0,0,1,1.14,0,.62.62,0,0,1,.23.48.6.6,0,0,1-.24.48.84.84,0,0,1-.57.21A.81.81,0,0,1,502.07,665.35Zm1.19,6.46H502v-5.38h1.28Z"/><path class="cls-5" d="M508.29,668.64l2.63,3.18h-1.56l-1.94-2.37-1.07,1v1.36h-1.27v-7.88h1.27v5.18l2.77-2.67h1.52Z"/><path class="cls-5" d="M515.71,666.65a2.49,2.49,0,0,1,1,.89,2.39,2.39,0,0,1,.34,1.27,3.25,3.25,0,0,1-.06.57h-4.5a1.66,1.66,0,0,0,.59,1.22,2.06,2.06,0,0,0,1.3.41,1.64,1.64,0,0,0,1.47-.71l.95.47a1.71,1.71,0,0,1-.94.86,3.7,3.7,0,0,1-1.55.31,3.77,3.77,0,0,1-1.59-.33,2.63,2.63,0,0,1-1.14-1,2.68,2.68,0,0,1-.43-1.54,2.57,2.57,0,0,1,.43-1.5,2.65,2.65,0,0,1,1.14-1,3.61,3.61,0,0,1,1.54-.33A3.12,3.12,0,0,1,515.71,666.65Zm-2.62.94a1.47,1.47,0,0,0-.58,1h3.19a1.42,1.42,0,0,0-.46-1,1.62,1.62,0,0,0-1-.35A1.87,1.87,0,0,0,513.09,667.59Z"/><path class="cls-5" d="M522.11,671.62a2.78,2.78,0,0,1-1.45.33,2.48,2.48,0,0,1-1.49-.43,1.77,1.77,0,0,1-.57-1.51v-2.65h-1.09v-.91h1.09V664.9h1.26v1.55h1.89v.91h-1.9v2.49c0,.75.33,1.12,1,1.12a1.81,1.81,0,0,0,.83-.19Z"/><path class="cls-5" d="M527.28,666.46h1.27v5.37h-1.12a8.4,8.4,0,0,0-.09-.87,1.91,1.91,0,0,1-.85.74,3,3,0,0,1-1.22.24,2.33,2.33,0,0,1-1.65-.57,2.14,2.14,0,0,1-.62-1.65v-3.27h1.26v3a1.73,1.73,0,0,0,.34,1.15,1.23,1.23,0,0,0,1,.41,1.8,1.8,0,0,0,1.18-.41,1.45,1.45,0,0,0,.49-1.17Z"/></g></g></g></g></svg>