<svg xmlns="http://www.w3.org/2000/svg" viewBox="0 0 749.26 257.25" width="749" height="257" preserveAspectRatio="none"><defs><style>.cls-1{opacity:0.06;}.cls-2{fill:#9e9e9f;}</style></defs><g id="图层_2" data-name="图层 2"><g id="图层_1-2" data-name="图层 1"><g id="_3" data-name="3"><path d="M95.07,75.18h88.38v25.09H151.57v96.58H126.94V100.27H95.07Z"/><path d="M286.61,196.85l-29.41-.17-23.47-41.05H219.67v41.22H194.9V75.18h38.54q13.19,0,23,5a35.34,35.34,0,0,1,15,14.13,41.83,41.83,0,0,1,5.22,21.11,41.8,41.8,0,0,1-4.79,20.28,35.18,35.18,0,0,1-13.76,14ZM219.67,99.11v32.75h10.87a25.78,25.78,0,0,0,14.13-3.74q5.87-3.75,5.87-12.72,0-16.29-20-16.29Z"/><path d="M534,192.11,509.61,192l-25.07-42.54H468.77v42.7H448.35V73.72H484a46.09,46.09,0,0,1,21.26,4.69,33.33,33.33,0,0,1,14.09,13.34,39.41,39.41,0,0,1,4.93,19.82,38.31,38.31,0,0,1-5.07,19.89A33.29,33.29,0,0,1,505,144.56Zm-65.2-98.5v35.91h12.81q9,0,15-4.45t6-13.5q0-9.22-5.92-13.59t-15.07-4.37Z"/><path d="M602.41,142.13H560.59v29.44h48.3v20.54H540.17V73.72h67.17V94.1H560.59v27.82h41.82Z"/><path d="M656.63,73.72q12.25,0,21.41,4.85a34.46,34.46,0,0,1,14.15,13.67,41.13,41.13,0,0,1,5,20.62,40.81,40.81,0,0,1-5,20.46A33.91,33.91,0,0,1,678,146.91q-9.16,4.77-21.41,4.77H641.56v40.43H621.14V73.72Zm-2.25,58.06q9.57,0,15.35-4.77t5.77-14.15q0-9.37-5.77-14.31t-15.35-4.94H641.56v38.17Z"/><path d="M749.26,257.25H0V0H749.26ZM16,241.25H733.26V16H16Z"/><rect x="366.63" y="7.97" width="16" height="242.74"/><g class="cls-1"><path class="cls-2" d="M132.5,86.75h1.37l-3.1,6.53a3.51,3.51,0,0,1-.94,1.31,2.68,2.68,0,0,1-2.75,0l.51-.87a1.55,1.55,0,0,0,.84.22,1,1,0,0,0,.69-.23,2.84,2.84,0,0,0,.61-.9l.22-.42-2.81-5.67h1.5l2,4.29Z"/><path class="cls-2" d="M135,85.63a.64.64,0,0,1,0-1,.84.84,0,0,1,.58-.21.88.88,0,0,1,.6.21.66.66,0,0,1,.25.51.64.64,0,0,1-.26.5.83.83,0,0,1-.59.22A.81.81,0,0,1,135,85.63Zm1.24,6.73h-1.33v-5.6h1.32Z"/><path class="cls-2" d="M141.47,89.06l2.74,3.31h-1.62l-2-2.46-1.11,1v1.42h-1.33V84.15h1.33v5.39l2.89-2.78h1.58Z"/><path class="cls-2" d="M149.2,87a2.56,2.56,0,0,1,1,.93,2.49,2.49,0,0,1,.36,1.32,2.84,2.84,0,0,1-.07.6h-4.69a1.76,1.76,0,0,0,.62,1.27,2.08,2.08,0,0,0,1.35.43,1.7,1.7,0,0,0,1.54-.73l1,.48a1.78,1.78,0,0,1-1,.9,4,4,0,0,1-1.61.32,3.88,3.88,0,0,1-1.66-.34,2.76,2.76,0,0,1-1.64-2.61,2.66,2.66,0,0,1,.45-1.56,2.84,2.84,0,0,1,1.19-1,3.74,3.74,0,0,1,1.6-.34A3.38,3.38,0,0,1,149.2,87Zm-2.72,1a1.58,1.58,0,0,0-.62,1h3.33a1.39,1.39,0,0,0-.48-1,1.58,1.58,0,0,0-1.09-.37A1.9,1.9,0,0,0,146.48,88Z"/><path class="cls-2" d="M155.87,92.15a2.88,2.88,0,0,1-1.51.35,2.5,2.5,0,0,1-1.55-.45,1.83,1.83,0,0,1-.6-1.57V87.73h-1.13v-.94h1.14V85.16h1.31v1.62h2v1h-2v2.6q0,1.15,1,1.17a1.86,1.86,0,0,0,.87-.21Z"/><path class="cls-2" d="M161.25,86.79h1.32v5.6h-1.18a5.47,5.47,0,0,0-.09-.91,1.91,1.91,0,0,1-.89.77,3,3,0,0,1-1.26.25,2.46,2.46,0,0,1-1.72-.59,2.19,2.19,0,0,1-.64-1.72V86.78h1.31v3.09a1.78,1.78,0,0,0,.35,1.19,1.26,1.26,0,0,0,1.05.43,1.83,1.83,0,0,0,1.23-.43,1.51,1.51,0,0,0,.51-1.22Z"/></g><g class="cls-1"><path class="cls-2" d="M706.23,247.84h1.38l-3.1,6.52a3.34,3.34,0,0,1-1,1.31,2.25,2.25,0,0,1-1.39.4,2.43,2.43,0,0,1-1.36-.37l.52-.88a1.55,1.55,0,0,0,.84.23,1.08,1.08,0,0,0,.69-.23,2.84,2.84,0,0,0,.61-.9l.22-.42-2.81-5.67h1.5l2,4.3Z"/><path class="cls-2" d="M708.73,246.72a.67.67,0,0,1-.24-.51.63.63,0,0,1,.25-.5.84.84,0,0,1,.58-.21.88.88,0,0,1,.6.21.66.66,0,0,1,.25.5.67.67,0,0,1-.26.51.83.83,0,0,1-.6.21A.88.88,0,0,1,708.73,246.72Zm1.25,6.72h-1.33v-5.6H710Z"/><path class="cls-2" d="M715.21,250.15l2.74,3.3h-1.62l-2-2.46-1.11,1v1.43h-1.33v-8.22h1.33v5.39l2.89-2.78h1.58Z"/><path class="cls-2" d="M722.94,248.07a2.56,2.56,0,0,1,1,.93,2.47,2.47,0,0,1,.36,1.32,2.75,2.75,0,0,1-.07.59h-4.69a1.75,1.75,0,0,0,.62,1.27,2.2,2.2,0,0,0,1.35.43,1.67,1.67,0,0,0,1.53-.74l1,.49a1.82,1.82,0,0,1-1,.9,4.18,4.18,0,0,1-3.28,0,2.78,2.78,0,0,1-1.19-1,2.83,2.83,0,0,1-.44-1.59,2.71,2.71,0,0,1,.45-1.57,2.74,2.74,0,0,1,1.19-1,3.7,3.7,0,0,1,1.6-.34A3.25,3.25,0,0,1,722.94,248.07Zm-2.72,1a1.54,1.54,0,0,0-.62,1h3.33a1.45,1.45,0,0,0-.48-1,1.63,1.63,0,0,0-1.09-.36A1.84,1.84,0,0,0,720.22,249.05Z"/><path class="cls-2" d="M729.61,253.24a2.79,2.79,0,0,1-1.51.34,2.5,2.5,0,0,1-1.55-.44,1.83,1.83,0,0,1-.6-1.58v-2.75h-1.13v-.95H726v-1.61h1.31v1.62h2v.95h-2v2.61c0,.77.34,1.16,1,1.16a2,2,0,0,0,.87-.2Z"/><path class="cls-2" d="M735,247.88h1.33v5.6h-1.17a6.64,6.64,0,0,0-.09-.91,2,2,0,0,1-.89.77,3,3,0,0,1-1.26.25,2.44,2.44,0,0,1-1.72-.59,2.23,2.23,0,0,1-.65-1.72v-3.41h1.31V251a1.83,1.83,0,0,0,.34,1.19,1.32,1.32,0,0,0,1.06.43,1.83,1.83,0,0,0,1.23-.43,1.52,1.52,0,0,0,.51-1.22Z"/></g></g></g></g></svg>