<svg xmlns="http://www.w3.org/2000/svg" id="图层_1" data-name="图层 1" viewBox="0 0 1000 1000" width="1000" height="1000" preserveAspectRatio="none"><defs><style>.cls-1{opacity:0.05;}.cls-2{fill:#9e9e9f;}</style></defs><path d="M409,266v76S237.29,331.53,210,490C184,641,338,720,409,698v79S210.76,819.22,142,612C70,395,266,239,409,266Z"/><path d="M846,264v76S674.29,329.53,647,488C621,639,775,718,846,696v79S647.76,817.22,579,610C507,393,703,237,846,264Z"/><rect x="610" y="482" width="184" height="77"/><g class="cls-1"><path class="cls-2" d="M362.65,278H364l-3,6.27a3.3,3.3,0,0,1-.92,1.25,2.11,2.11,0,0,1-1.34.38,2.24,2.24,0,0,1-1.3-.35l.5-.84a1.52,1.52,0,0,0,.8.22,1.06,1.06,0,0,0,.67-.22,3.1,3.1,0,0,0,.59-.87l.21-.4L357.5,278H359l1.9,4.12Z"/><path class="cls-2" d="M365.05,276.88a.62.62,0,0,1-.23-.49.59.59,0,0,1,.23-.48.8.8,0,0,1,.56-.2.84.84,0,0,1,.58.2.6.6,0,0,1,.23.48.63.63,0,0,1-.24.49.83.83,0,0,1-.57.2A.8.8,0,0,1,365.05,276.88Zm1.19,6.45H365V278h1.27Z"/><path class="cls-2" d="M371.27,280.17l2.63,3.17h-1.56L370.4,281l-1.07,1v1.37h-1.27v-7.89h1.27v5.18l2.77-2.67h1.52Z"/><path class="cls-2" d="M378.69,278.17a2.44,2.44,0,0,1,1,.9,2.37,2.37,0,0,1,.34,1.27,3.25,3.25,0,0,1-.06.57h-4.5a1.66,1.66,0,0,0,.59,1.22,2.06,2.06,0,0,0,1.3.41,1.63,1.63,0,0,0,1.47-.7l.95.46a1.69,1.69,0,0,1-.94.87,3.86,3.86,0,0,1-1.55.3,3.77,3.77,0,0,1-1.59-.33,2.57,2.57,0,0,1-1.14-1,2.67,2.67,0,0,1-.43-1.53,2.57,2.57,0,0,1,.43-1.5,2.8,2.8,0,0,1,1.14-1,3.6,3.6,0,0,1,1.54-.32A3.25,3.25,0,0,1,378.69,278.17Zm-2.62.94a1.5,1.5,0,0,0-.58,1h3.19a1.38,1.38,0,0,0-.46-1,1.57,1.57,0,0,0-1.05-.35A1.86,1.86,0,0,0,376.07,279.11Z"/><path class="cls-2" d="M385.09,283.14a2.76,2.76,0,0,1-1.45.33,2.42,2.42,0,0,1-1.49-.43,1.77,1.77,0,0,1-.57-1.51v-2.64H380.5V278h1.09v-1.56h1.26V278h1.89v.91h-1.9v2.5c0,.74.33,1.12,1,1.12a1.82,1.82,0,0,0,.83-.2Z"/><path class="cls-2" d="M390.26,278h1.27v5.38H390.4a7.84,7.84,0,0,0-.09-.87,1.89,1.89,0,0,1-.85.73,2.86,2.86,0,0,1-1.22.25,2.34,2.34,0,0,1-1.65-.58,2.13,2.13,0,0,1-.62-1.64V278h1.26v3a1.71,1.71,0,0,0,.34,1.14,1.2,1.2,0,0,0,1,.41,1.73,1.73,0,0,0,1.18-.41,1.45,1.45,0,0,0,.49-1.17Z"/></g><g class="cls-1"><path class="cls-2" d="M748.65,494.76H750L747,501a3.26,3.26,0,0,1-.92,1.26,2.54,2.54,0,0,1-2.64,0l.5-.84a1.44,1.44,0,0,0,.8.22,1,1,0,0,0,.67-.22,3.17,3.17,0,0,0,.59-.86l.21-.41-2.71-5.44H745l1.9,4.13Z"/><path class="cls-2" d="M751.05,493.68a.63.63,0,0,1,0-1,.85.85,0,0,1,.56-.2.89.89,0,0,1,.58.2.62.62,0,0,1,.23.49.61.61,0,0,1-.24.48.84.84,0,0,1-.57.21A.81.81,0,0,1,751.05,493.68Zm1.19,6.46H751v-5.38h1.27Z"/><path class="cls-2" d="M757.27,497l2.63,3.18h-1.56l-1.94-2.37-1.07,1v1.37h-1.27v-7.88h1.27v5.18l2.77-2.67h1.52Z"/><path class="cls-2" d="M764.69,495a2.42,2.42,0,0,1,1,.89,2.39,2.39,0,0,1,.34,1.27,3.25,3.25,0,0,1-.06.57h-4.5a1.65,1.65,0,0,0,.59,1.22,2,2,0,0,0,1.3.41,1.63,1.63,0,0,0,1.47-.7l1,.47a1.71,1.71,0,0,1-.94.86,3.7,3.7,0,0,1-1.55.31,3.77,3.77,0,0,1-1.59-.33,2.63,2.63,0,0,1-1.14-1,2.68,2.68,0,0,1-.43-1.54,2.57,2.57,0,0,1,.43-1.5,2.71,2.71,0,0,1,1.14-.95,3.61,3.61,0,0,1,1.54-.33A3.12,3.12,0,0,1,764.69,495Zm-2.62.94a1.47,1.47,0,0,0-.58,1h3.19a1.4,1.4,0,0,0-.46-1,1.57,1.57,0,0,0-1.05-.35A1.8,1.8,0,0,0,762.07,495.92Z"/><path class="cls-2" d="M771.09,499.94a2.66,2.66,0,0,1-1.45.33,2.48,2.48,0,0,1-1.49-.42,1.79,1.79,0,0,1-.57-1.52v-2.64H766.5v-.91h1.09v-1.55h1.26v1.55h1.89v.92h-1.9v2.5c0,.75.33,1.12,1,1.12a1.7,1.7,0,0,0,.83-.2Z"/><path class="cls-2" d="M776.26,494.79h1.27v5.38H776.4a7.84,7.84,0,0,0-.09-.87,1.91,1.91,0,0,1-.85.74,3,3,0,0,1-1.22.24,2.33,2.33,0,0,1-1.65-.57,2.14,2.14,0,0,1-.62-1.65v-3.27h1.26v3a1.75,1.75,0,0,0,.34,1.15,1.23,1.23,0,0,0,1,.41,1.74,1.74,0,0,0,1.18-.42,1.42,1.42,0,0,0,.49-1.17Z"/></g></svg>