<svg xmlns="http://www.w3.org/2000/svg" viewBox="0 0 800 796.5" width="800" height="796" preserveAspectRatio="none"><defs><style>.cls-1{opacity:0.05;}.cls-2{fill:#9e9e9f;}</style></defs><g id="图层_2" data-name="图层 2"><g id="图层_1-2" data-name="图层 1"><g id="_4" data-name="4"><path d="M716,795l84-2-2-246s-12-94-98-112c0,0-17-2-27-2H545s-97,14-109,114l-1,248h81V557s6-38,43-42,119,0,119,0,31,5,38,38C716,553,714.76,796.24,716,795Z"/><path d="M281,3l84,2-2,246s-12,94-98,112c0,0-17,2-27,2H110S13,351,1,251L0,3H81V241s6,38,43,42,119,0,119,0,31-5,38-38C281,245,279.76,1.76,281,3Z"/><path d="M366.5,515.5l-2-84-246,2s-94,12-112,98c0,0-2,17-2,27v128s14,97,114,109l248,1v-81h-238s-38-6-42-43,0-119,0-119,5-31,38-38C124.5,515.5,367.74,516.74,366.5,515.5Z"/><polygon points="796 1 689 1 514 139 514 0 431 0 431 365 515 365 515 226 690 365 794 364 567 179 796 1"/><rect x="493" y="627" width="246" height="85"/><g class="cls-1"><path class="cls-2" d="M740.45,770.71H742L738.53,778a3.76,3.76,0,0,1-1.06,1.45,2.44,2.44,0,0,1-1.55.44,2.55,2.55,0,0,1-1.51-.41l.58-1a1.66,1.66,0,0,0,.93.25,1.14,1.14,0,0,0,.77-.26,3.29,3.29,0,0,0,.68-1l.24-.47-3.13-6.31h1.68l2.2,4.79Z"/><path class="cls-2" d="M743.23,769.46a.72.72,0,0,1,0-1.12.94.94,0,0,1,.65-.23,1,1,0,0,1,.67.23.73.73,0,0,1,.27.56.72.72,0,0,1-.28.57,1,1,0,0,1-.67.24A1,1,0,0,1,743.23,769.46Zm1.38,7.49h-1.48v-6.24h1.48Z"/><path class="cls-2" d="M750.44,773.28l3,3.68h-1.81l-2.25-2.74-1.23,1.15V777h-1.48v-9.14h1.48v6l3.22-3.1h1.76Z"/><path class="cls-2" d="M759.05,771a2.82,2.82,0,0,1,1.13,1,2.76,2.76,0,0,1,.4,1.48,4.65,4.65,0,0,1-.07.66h-5.22a1.89,1.89,0,0,0,.68,1.41,2.35,2.35,0,0,0,1.51.48,1.89,1.89,0,0,0,1.71-.82l1.1.55a2,2,0,0,1-1.09,1,4.55,4.55,0,0,1-1.8.35,4.42,4.42,0,0,1-1.84-.38,3.05,3.05,0,0,1-1.33-1.13,3.11,3.11,0,0,1-.49-1.77,3,3,0,0,1,.49-1.75,3.29,3.29,0,0,1,1.33-1.11,4.24,4.24,0,0,1,1.78-.37A3.71,3.71,0,0,1,759.05,771Zm-3,1.09a1.76,1.76,0,0,0-.68,1.13H759a1.58,1.58,0,0,0-.53-1.13,1.79,1.79,0,0,0-1.22-.4A2.13,2.13,0,0,0,756,772.06Z"/><path class="cls-2" d="M766.47,776.73a3.27,3.27,0,0,1-1.68.38,2.9,2.9,0,0,1-1.73-.49,2.07,2.07,0,0,1-.66-1.76V771.8h-1.26v-1h1.26v-1.8h1.46v1.8h2.19v1.06h-2.19v2.89c0,.87.38,1.3,1.15,1.3a2,2,0,0,0,1-.23Z"/><path class="cls-2" d="M772.46,770.75h1.48V777h-1.31a8,8,0,0,0-.1-1,2.24,2.24,0,0,1-1,.86,3.53,3.53,0,0,1-1.4.28,2.7,2.7,0,0,1-1.92-.67,2.45,2.45,0,0,1-.72-1.91v-3.79H769v3.43a2,2,0,0,0,.39,1.33,1.42,1.42,0,0,0,1.17.48,2,2,0,0,0,1.37-.48,1.68,1.68,0,0,0,.57-1.36Z"/></g><g class="cls-1"><path class="cls-2" d="M301.7,193.31h1.51l-3.4,7.15a3.65,3.65,0,0,1-1,1.43,2.94,2.94,0,0,1-3,0l.56-1a1.67,1.67,0,0,0,.92.25A1.16,1.16,0,0,0,298,201a3.36,3.36,0,0,0,.67-1l.24-.46-3.08-6.21h1.65l2.17,4.71Z"/><path class="cls-2" d="M304.44,192.09a.73.73,0,0,1-.27-.56.7.7,0,0,1,.27-.55,1,1,0,0,1,.64-.23,1,1,0,0,1,.66.23.71.71,0,0,1,.27.55.7.7,0,0,1-.28.56.94.94,0,0,1-.65.23A1,1,0,0,1,304.44,192.09Zm1.36,7.37h-1.45v-6.14h1.45Z"/><path class="cls-2" d="M311.54,195.85l3,3.62h-1.78l-2.21-2.7-1.22,1.13v1.56h-1.45v-9h1.45v5.92l3.16-3h1.74Z"/><path class="cls-2" d="M320,193.57a2.71,2.71,0,0,1,1.12,1,2.74,2.74,0,0,1,.39,1.45,3.44,3.44,0,0,1-.07.65h-5.14a1.88,1.88,0,0,0,.68,1.39,2.32,2.32,0,0,0,1.48.47,1.87,1.87,0,0,0,1.68-.8l1.09.53a2,2,0,0,1-1.08,1,4.19,4.19,0,0,1-1.76.34,4.29,4.29,0,0,1-1.82-.37,3.08,3.08,0,0,1-1.31-1.11,3.12,3.12,0,0,1-.48-1.75,2.94,2.94,0,0,1,.49-1.71,3.1,3.1,0,0,1,1.3-1.1,4.25,4.25,0,0,1,1.75-.37A3.53,3.53,0,0,1,320,193.57Zm-3,1.07a1.74,1.74,0,0,0-.68,1.12H320a1.54,1.54,0,0,0-.52-1.1,1.76,1.76,0,0,0-1.2-.4A2,2,0,0,0,317,194.64Z"/><path class="cls-2" d="M327.32,199.24a3.06,3.06,0,0,1-1.65.37,2.81,2.81,0,0,1-1.7-.48,2,2,0,0,1-.66-1.73v-3h-1.24v-1h1.24v-1.77h1.44v1.77h2.16v1h-2.16v2.86c0,.85.38,1.27,1.13,1.27a2,2,0,0,0,.95-.22Z"/><path class="cls-2" d="M333.22,193.35h1.45v6.14h-1.29a7.82,7.82,0,0,0-.1-1,2.09,2.09,0,0,1-1,.84,3.32,3.32,0,0,1-1.39.28A2.69,2.69,0,0,1,329,199a2.44,2.44,0,0,1-.7-1.88v-3.74h1.44v3.38a2,2,0,0,0,.38,1.31,1.41,1.41,0,0,0,1.16.47,2.07,2.07,0,0,0,1.35-.47,1.66,1.66,0,0,0,.55-1.34Z"/></g></g></g></g></svg>