<svg xmlns="http://www.w3.org/2000/svg" viewBox="0 0 752.96 258.47" width="752" height="258" preserveAspectRatio="none"><defs><style>.cls-1{opacity:0.03;}.cls-2{fill:#9e9e9f;}.cls-3{opacity:0.06;}</style></defs><g id="图层_2" data-name="图层 2"><g id="图层_1-2" data-name="图层 1"><g id="_1" data-name="1"><path d="M52.78,70.69H135V95.92H105.36V193H82.44V95.92H52.78Z"/><path d="M208.36,70.69h23.06v72.84q0,15.71-5.19,27.4a39.88,39.88,0,0,1-15,18q-9.78,6.27-23.25,6.26t-23.26-6.26a39.88,39.88,0,0,1-15-18q-5.19-11.69-5.19-27.4V70.69h23.06V136q0,17,5.39,25a18,18,0,0,0,29.93,0q5.39-8,5.39-25Z"/><path d="M335.1,193l-27.37-.16-21.84-41.27H272.81V193H249.75V70.69h35.87q12.25,0,21.37,5a34,34,0,0,1,13.95,14.2,44.66,44.66,0,0,1,4.85,21.21,44.72,44.72,0,0,1-4.45,20.38,34.22,34.22,0,0,1-12.8,14ZM272.81,94.75v32.91h10.11a22.6,22.6,0,0,0,13.15-3.76q5.46-3.75,5.46-12.78,0-16.37-18.61-16.37Z"/><path d="M533.77,193l-24.48-.16-25.2-42.75H468.24V193H447.72v-119h35.81a46.3,46.3,0,0,1,21.37,4.71,33.52,33.52,0,0,1,14.15,13.41,39.46,39.46,0,0,1,5,19.91,38.51,38.51,0,0,1-5.1,20,33.4,33.4,0,0,1-14.29,13.16ZM468.24,94v36.09h12.88q9.06,0,15.08-4.47t6-13.58q0-9.26-5.94-13.65T481.12,94Z"/><path d="M602.56,142.81h-42v29.58h48.55V193H540v-119h67.51V94.53h-47v28h42Z"/><path d="M657.05,74.05q12.32,0,21.51,4.87a34.65,34.65,0,0,1,14.23,13.74,41.31,41.31,0,0,1,5,20.72,41,41,0,0,1-5,20.57,34.07,34.07,0,0,1-14.23,13.65q-9.19,4.8-21.51,4.8H641.91V193H621.38v-119Zm-2.26,58.35q9.62,0,15.42-4.79T676,113.38Q676,104,670.21,99t-15.42-5H641.91V132.4Z"/><path d="M753,258.47H0V0H753Zm-737-16H737V16H16Z"/><rect x="362.78" y="7.94" width="16" height="243.96"/><g class="cls-1"><path class="cls-2" d="M718.76,249h1.32l-3,6.26a3.25,3.25,0,0,1-.9,1.26,2.2,2.2,0,0,1-1.34.38,2.22,2.22,0,0,1-1.3-.35l.49-.84a1.47,1.47,0,0,0,.81.22,1,1,0,0,0,.66-.23,2.71,2.71,0,0,0,.58-.86l.21-.4L713.63,249h1.44l1.91,4.11Z"/><path class="cls-2" d="M721.16,248a.63.63,0,0,1-.24-.49.65.65,0,0,1,.23-.48.87.87,0,0,1,.56-.2.89.89,0,0,1,.58.2.59.59,0,0,1,.23.48.6.6,0,0,1-.24.49.83.83,0,0,1-.57.2A.78.78,0,0,1,721.16,248Zm1.2,6.44h-1.27V249h1.27Z"/><path class="cls-2" d="M727.37,251.23l2.63,3.15h-1.55l-2-2.36-1,1v1.36h-1.27l0-7.86h1.28v5.16L728.2,249h1.52Z"/><path class="cls-2" d="M734.77,249.21a2.46,2.46,0,0,1,1,.89,2.4,2.4,0,0,1,.35,1.27,3.25,3.25,0,0,1-.06.57h-4.49a1.68,1.68,0,0,0,.59,1.22,2.06,2.06,0,0,0,1.3.4,1.63,1.63,0,0,0,1.47-.7l1,.46a1.79,1.79,0,0,1-.94.87,3.81,3.81,0,0,1-1.54.3,3.7,3.7,0,0,1-1.59-.32,2.72,2.72,0,0,1-1.15-1,2.68,2.68,0,0,1-.42-1.52,2.57,2.57,0,0,1,.42-1.5,2.71,2.71,0,0,1,1.13-1,3.64,3.64,0,0,1,1.54-.33A3.25,3.25,0,0,1,734.77,249.21Zm-2.61.95a1.52,1.52,0,0,0-.59,1h3.19a1.38,1.38,0,0,0-.46-1,1.57,1.57,0,0,0-1-.35A1.83,1.83,0,0,0,732.16,250.16Z"/><path class="cls-2" d="M741.17,254.15a2.8,2.8,0,0,1-1.45.33,2.41,2.41,0,0,1-1.49-.42,1.76,1.76,0,0,1-.57-1.51v-2.63h-1.09V249h1.08v-1.55h1.26V249h1.89v.91h-1.89v2.49q0,1.11,1,1.11a1.66,1.66,0,0,0,.82-.2Z"/><path class="cls-2" d="M746.3,249h1.27v5.37h-1.12a8.4,8.4,0,0,0-.09-.87,1.86,1.86,0,0,1-.85.74,2.79,2.79,0,0,1-1.21.25,2.33,2.33,0,0,1-1.65-.57,2.12,2.12,0,0,1-.62-1.64V249h1.26v3a1.76,1.76,0,0,0,.33,1.14,1.23,1.23,0,0,0,1,.41,1.74,1.74,0,0,0,1.18-.42,1.45,1.45,0,0,0,.49-1.17Z"/></g><g class="cls-3"><path class="cls-2" d="M704.19,247.73h1.38l-3.1,6.52a3.34,3.34,0,0,1-1,1.31,2.28,2.28,0,0,1-1.4.39,2.32,2.32,0,0,1-1.35-.36l.52-.88a1.54,1.54,0,0,0,.83.23,1,1,0,0,0,.69-.23,3.09,3.09,0,0,0,.62-.9l.22-.42-2.82-5.67h1.51l2,4.3Z"/><path class="cls-2" d="M706.69,246.61a.68.68,0,0,1-.24-.51.65.65,0,0,1,.24-.5.88.88,0,0,1,.58-.21.9.9,0,0,1,.61.21.65.65,0,0,1,.24.5.63.63,0,0,1-.25.51.91.91,0,0,1-.6.21A.88.88,0,0,1,706.69,246.61Zm1.24,6.72h-1.32v-5.6h1.33Z"/><path class="cls-2" d="M713.17,250l2.74,3.3h-1.63l-2-2.46-1.1,1v1.43h-1.32v-8.21h1.32v5.4l2.89-2.78h1.58Z"/><path class="cls-2" d="M720.9,248a2.62,2.62,0,0,1,1,.93,2.38,2.38,0,0,1,.35,1.32,3.46,3.46,0,0,1-.06.59h-4.69a1.75,1.75,0,0,0,.62,1.27,2.13,2.13,0,0,0,1.35.42,1.67,1.67,0,0,0,1.53-.73l1,.49a1.75,1.75,0,0,1-1,.9,4.16,4.16,0,0,1-3.27,0,2.72,2.72,0,0,1-1.19-1,2.85,2.85,0,0,1-.44-1.59,2.71,2.71,0,0,1,.45-1.57,2.81,2.81,0,0,1,1.18-1,3.93,3.93,0,0,1,1.61-.33A3.25,3.25,0,0,1,720.9,248Zm-2.73,1a1.57,1.57,0,0,0-.61,1h3.32a1.4,1.4,0,0,0-.47-1,1.66,1.66,0,0,0-1.1-.36A1.88,1.88,0,0,0,718.17,248.94Z"/><path class="cls-2" d="M727.56,253.13a2.76,2.76,0,0,1-1.5.34,2.53,2.53,0,0,1-1.56-.44,1.87,1.87,0,0,1-.59-1.58V248.7h-1.13v-.95h1.13v-1.62h1.31v1.61h2v1h-2v2.6c0,.78.34,1.17,1,1.17a1.91,1.91,0,0,0,.86-.2Z"/><path class="cls-2" d="M732.94,247.77h1.33v5.6h-1.17a8.78,8.78,0,0,0-.09-.9,2,2,0,0,1-.89.77,3,3,0,0,1-1.26.25,2.49,2.49,0,0,1-1.73-.59,2.23,2.23,0,0,1-.64-1.72v-3.41h1.31v3.09a1.83,1.83,0,0,0,.35,1.19,1.29,1.29,0,0,0,1.06.43,1.88,1.88,0,0,0,1.23-.43,1.52,1.52,0,0,0,.51-1.22Z"/></g><g class="cls-3"><path class="cls-2" d="M81.8,83.18h1.38l-3.1,6.52a3.44,3.44,0,0,1-1,1.31,2.28,2.28,0,0,1-1.4.39A2.23,2.23,0,0,1,76.38,91l.52-.87a1.54,1.54,0,0,0,.83.23,1,1,0,0,0,.69-.23,3.09,3.09,0,0,0,.62-.9l.22-.42-2.82-5.67H78l2,4.3Z"/><path class="cls-2" d="M84.3,82.06a.65.65,0,0,1-.24-.5.63.63,0,0,1,.24-.5.88.88,0,0,1,.58-.21.92.92,0,0,1,.61.21.63.63,0,0,1,.24.5.66.66,0,0,1-.25.51.91.91,0,0,1-.6.21A.82.82,0,0,1,84.3,82.06Zm1.24,6.73H84.21v-5.6h1.33Z"/><path class="cls-2" d="M90.78,85.49l2.74,3.31H91.89l-2-2.47-1.11,1v1.42H87.44V80.58h1.32V86l2.88-2.78h1.59Z"/><path class="cls-2" d="M98.51,83.42a2.4,2.4,0,0,1,1,.93,2.47,2.47,0,0,1,.36,1.32,3.56,3.56,0,0,1-.06.59H95.13a1.71,1.71,0,0,0,.62,1.27A2.08,2.08,0,0,0,97.1,88a1.69,1.69,0,0,0,1.53-.73l1,.49a1.82,1.82,0,0,1-1,.9,4,4,0,0,1-1.61.31,3.91,3.91,0,0,1-1.66-.34,2.93,2.93,0,0,1-1.19-4.17,2.9,2.9,0,0,1,1.19-1A3.9,3.9,0,0,1,97,83.07,3.26,3.26,0,0,1,98.51,83.42Zm-2.73,1a1.58,1.58,0,0,0-.61,1h3.32a1.4,1.4,0,0,0-.47-1,1.72,1.72,0,0,0-1.1-.37A1.9,1.9,0,0,0,95.78,84.39Z"/><path class="cls-2" d="M105.17,88.59a2.87,2.87,0,0,1-1.5.34,2.6,2.6,0,0,1-1.56-.44,1.82,1.82,0,0,1-.59-1.58V84.16h-1.13v-1h1.13V81.59h1.32v1.62h2v1h-2v2.6c0,.78.34,1.17,1,1.17a1.79,1.79,0,0,0,.86-.21Z"/><path class="cls-2" d="M110.55,83.22h1.33v5.6H110.7a8.49,8.49,0,0,0-.09-.9,2,2,0,0,1-.89.77,3.22,3.22,0,0,1-1.26.25,2.44,2.44,0,0,1-1.73-.6,2.2,2.2,0,0,1-.64-1.71V83.22h1.32V86.3a1.88,1.88,0,0,0,.35,1.2,1.29,1.29,0,0,0,1.06.42,1.83,1.83,0,0,0,1.23-.43,1.49,1.49,0,0,0,.51-1.22Z"/></g></g></g></g></svg>