<svg xmlns="http://www.w3.org/2000/svg" viewBox="0 0 700.4 377.86" width="700" height="377" preserveAspectRatio="none"><defs><style>.cls-1{fill:#ff0;stroke:#000;stroke-miterlimit:10;stroke-width:3.98px;}.cls-2{opacity:0.1;}.cls-3{fill:#9e9e9f;}.cls-4{opacity:0.06;}</style></defs><g id="图层_2" data-name="图层 2"><g id="图层_1-2" data-name="图层 1"><g id="_9" data-name="9"><path d="M187.5,22.23l6.9,58.34,27.77-58.24h5.34L194.63,89.68h-4.51l-7-57.14L155.15,89.68h-4.41L142.3,22.33h5.89l6.74,58.24,27.88-58.34Z" transform="translate(-2.59)"/><path d="M252.81,22.33,267,89.68h-6.17l-4.21-21.16H227.12L215.24,89.68h-5.62l38.59-67.35Zm2.85,41.22-6.73-33.77-19,33.77Z" transform="translate(-2.59)"/><path d="M321.6,89.68h-6.71l-15-29.08a24,24,0,0,1-2.52.19H285.16l-5.42,28.89h-5.52l12.64-67.35h17.75a27,27,0,0,1,11.71,2.34,14.46,14.46,0,0,1,7,6.72,16.09,16.09,0,0,1,1,10.17,21,21,0,0,1-6.22,11.54,26.65,26.65,0,0,1-12.27,6.58ZM291.48,27.11l-5.41,28.8h11.6q8.46,0,14.06-3.86a15.87,15.87,0,0,0,6.85-10.49q1.25-6.63-2.9-10.54t-12.61-3.91Z" transform="translate(-2.59)"/><path d="M345.28,22.33l28.87,57.5,10.79-57.5h5.15L377.46,89.68h-4.61l-28.94-57.6L333.1,89.68H328l12.64-67.35Z" transform="translate(-2.59)"/><path d="M397.7,89.68h-5.52l12.64-67.35h5.52Z" transform="translate(-2.59)"/><path d="M429.66,22.33l28.87,57.5,10.79-57.5h5.15L461.83,89.68h-4.6l-28.94-57.6-10.81,57.6h-5.15L425,22.33Z" transform="translate(-2.59)"/><path d="M511.14,60.33l.91-4.88h20.89l-4.63,24.66a26.72,26.72,0,0,1-10.12,7.59,32.92,32.92,0,0,1-13.75,2.9,26.49,26.49,0,0,1-15.37-4.37A23,23,0,0,1,480.15,74q-2.56-7.92-.65-18.13A44.76,44.76,0,0,1,487,37.88a40.51,40.51,0,0,1,13.47-12.2A33.78,33.78,0,0,1,517,21.31a23.36,23.36,0,0,1,13,3.41,15.15,15.15,0,0,1,6.74,9.2l-4.9,2.58a12.59,12.59,0,0,0-5.47-7.37,19,19,0,0,0-10.57-2.76,26.61,26.61,0,0,0-13.58,3.73,32.67,32.67,0,0,0-10.84,10.44,41.12,41.12,0,0,0-6,15.28,32.92,32.92,0,0,0,.35,15.5,19.14,19.14,0,0,0,7.19,10.49,21.55,21.55,0,0,0,12.92,3.73,26.77,26.77,0,0,0,9.71-1.75,20.41,20.41,0,0,0,7.8-5.24l3.42-18.22Z" transform="translate(-2.59)"/><path d="M537.19,89.45a3.29,3.29,0,0,1-.63-2.81,4.72,4.72,0,0,1,1.61-2.71,4.3,4.3,0,0,1,2.89-1.15,3,3,0,0,1,2.54,1.15,3.25,3.25,0,0,1,.6,2.71,4.83,4.83,0,0,1-1.63,2.81,4.29,4.29,0,0,1-2.89,1.15A3,3,0,0,1,537.19,89.45Zm7.87-42a3.23,3.23,0,0,1-.62-2.8A4.66,4.66,0,0,1,546.05,42a4.28,4.28,0,0,1,2.88-1.15A3,3,0,0,1,551.48,42a3.26,3.26,0,0,1,.59,2.72,4.75,4.75,0,0,1-1.63,2.8,4.28,4.28,0,0,1-2.88,1.15A3,3,0,0,1,545.06,47.49Z" transform="translate(-2.59)"/><path class="cls-1" d="M67.92,7.09l43.59,73.13a10.46,10.46,0,0,1-9,15.82H15.34a10.46,10.46,0,0,1-9-15.82L50,7.09A10.46,10.46,0,0,1,67.92,7.09Z" transform="translate(-2.59)"/><path d="M59.36,84a7.24,7.24,0,0,1-5-1.93,5.74,5.74,0,0,1-2.14-4.49,6,6,0,0,1,2.14-4.65,7.63,7.63,0,0,1,5-1.86,7.53,7.53,0,0,1,5.13,1.86,6.16,6.16,0,0,1,2.05,4.65,5.84,5.84,0,0,1-2.05,4.49A7.36,7.36,0,0,1,59.36,84Zm.09-18.27q-4.37,0-4.45-3.88L53.29,28.37q-.34-5.81,6.16-5.81t6.15,5.81L63.89,61.83C63.84,64.42,62.35,65.71,59.45,65.71Z" transform="translate(-2.59)"/><path d="M40.52,204.51c-3.56,1.9-8.19,2.85-13.92,2.85q-11,0-17.53-7.18T2.59,181q0-12.58,7.24-20.58t18.7-8a31.11,31.11,0,0,1,12,2v10.93a20.48,20.48,0,0,0-11.23-3.15,14.36,14.36,0,0,0-11.46,5q-4.29,5-4.29,13,0,7.81,4.07,12.58a13.72,13.72,0,0,0,11,4.77,21.69,21.69,0,0,0,11.9-3.43Z" transform="translate(-2.59)"/><path d="M89.08,206.43H78.66v-21.9H57.83v21.9H47.42V153.35H57.83v21.42H78.66V153.35H89.08Z" transform="translate(-2.59)"/><path d="M95.7,180.59q0-12.48,6.7-20.3t17.72-7.84q10.48,0,16.87,7.58t6.39,19.46q0,12.42-6.64,20.14t-17.41,7.73a21.64,21.64,0,0,1-17.07-7.49Q95.69,192.39,95.7,180.59Zm11-.62q0,7.75,3.43,12.67a10.92,10.92,0,0,0,9.44,4.92,11.07,11.07,0,0,0,9.53-4.72q3.4-4.71,3.41-12.66,0-8.3-3.31-13.11a10.7,10.7,0,0,0-9.35-4.81,11.21,11.21,0,0,0-9.64,4.93Q106.65,172.13,106.65,180Z" transform="translate(-2.59)"/><path d="M189.76,206.43H176.57l-14.8-23.2a16.65,16.65,0,0,1-1.3-2.78h-.16v26H149.9V153.35h10.41v25.08h.16a26.06,26.06,0,0,1,1.39-2.84l14-22.24h12.44l-17.49,25.32Z" transform="translate(-2.59)"/><path d="M203.32,153.35v53.08H192.9V153.35Z" transform="translate(-2.59)"/><path d="M256.33,206.43H245.66L225,172.09a40.58,40.58,0,0,1-2.34-4.32h-.16q.28,2.74.29,8.47v30.19h-9.88V153.35h11.36l20,33.38c1.32,2.21,2.13,3.62,2.43,4.21h.15a55,55,0,0,1-.31-7.33V153.35h9.88Z" transform="translate(-2.59)"/><path d="M305.67,202.87q-7.16,4.49-17.61,4.49-11.67,0-18.43-7.13t-6.75-19.5q0-12.54,7.43-20.41t19.58-7.87a35.79,35.79,0,0,1,13.67,2.4v10.73a25.45,25.45,0,0,0-13.89-3.6,14.49,14.49,0,0,0-11.45,5q-4.39,5-4.39,13.19t4,13q4,4.67,10.81,4.66a14.26,14.26,0,0,0,6.66-1.37v-10.9h-9.88v-9.08h20.29Z" transform="translate(-2.59)"/><path d="M372.81,206.43H362.39v-21.9H341.57v21.9H331.15V153.35h10.42v21.42h20.82V153.35h10.42Z" transform="translate(-2.59)"/><path d="M424.9,206.43H413.54l-3.66-12.16H392.11l-3.6,12.16H377.22l17.89-53.08h12.24Zm-17.48-20.9-5.56-18.41a22,22,0,0,1-.76-4.62h-.28A21.47,21.47,0,0,1,400,167l-5.59,18.54Z" transform="translate(-2.59)"/><path d="M465,159.48l-25,37.7h25v9.25H425.93v-6.3l25.44-37.53H427.82v-9.25H465Z" transform="translate(-2.59)"/><path d="M513,206.43H501.6l-3.66-12.16H480.17l-3.6,12.16h-11.3l17.9-53.08h12.24Zm-17.49-20.9-5.55-18.41a22,22,0,0,1-.76-4.62h-.28A21.47,21.47,0,0,1,488,167l-5.59,18.54Z" transform="translate(-2.59)"/><path d="M557.73,206.43h-12l-7.67-13.81a20.73,20.73,0,0,0-3.88-5.52,5,5,0,0,0-3.22-1.23h-3.16v20.56H517.4V153.35h17.13q17.46,0,17.45,14.39a15,15,0,0,1-2.92,9.29,15.39,15.39,0,0,1-8,5.45v.13q3.38,1.24,7.48,8.09ZM527.81,162v15.28h5.11a7.8,7.8,0,0,0,5.89-2.31,8,8,0,0,0,2.22-5.78q0-7.19-7.92-7.19Z" transform="translate(-2.59)"/><path d="M560.78,206.43V153.35h16.88q26,0,26,25.87,0,12.3-7.29,19.76t-18.81,7.45Zm10.41-43.83v34.58h5.68q7.43,0,11.65-4.8t4.23-13q0-7.92-4.42-12.35a15.52,15.52,0,0,0-11.49-4.44Z" transform="translate(-2.59)"/><path d="M9.94,286.84V246.16H21.07a11.82,11.82,0,0,1,8,2.56,8.5,8.5,0,0,1,3,6.79,10.19,10.19,0,0,1-1.77,5.93,9.48,9.48,0,0,1-4.88,3.65v.11a9.32,9.32,0,0,1,6.17,3.14,9.9,9.9,0,0,1,2.32,6.76,11,11,0,0,1-3.51,8.5,12.74,12.74,0,0,1-9,3.24Zm4.89-36.08v12.73h4.46a7.88,7.88,0,0,0,5.56-1.85,6.59,6.59,0,0,0,2-5.13q0-5.76-7.14-5.75Zm0,17.3v14.18h5.88a8.5,8.5,0,0,0,5.93-1.9,6.8,6.8,0,0,0,2.09-5.29q0-7-8.83-7Z" transform="translate(-2.59)"/><path d="M61.45,273.63H42.52q.12,4.65,2.37,7.18a8,8,0,0,0,6.29,2.54,12.85,12.85,0,0,0,8.34-3.13v4.6q-3.57,2.7-9.47,2.7a11.22,11.22,0,0,1-9.16-4q-3.28-4-3.29-11.08a16.61,16.61,0,0,1,3.61-11,11.23,11.23,0,0,1,9-4.33,10.12,10.12,0,0,1,8.3,3.66q3,3.68,3,10.26Zm-4.79-4.12a9.73,9.73,0,0,0-1.74-6.1,5.82,5.82,0,0,0-4.82-2.15,6.47,6.47,0,0,0-5,2.29,10.88,10.88,0,0,0-2.63,6Z" transform="translate(-2.59)"/><path d="M106.5,285.16A21.18,21.18,0,0,1,96,287.52q-8.15,0-13-5.55t-4.87-14.7q0-9.81,5.48-15.8a18,18,0,0,1,13.92-6,21.34,21.34,0,0,1,9,1.65v5.49a17.17,17.17,0,0,0-8.93-2.41,13.11,13.11,0,0,0-10.33,4.52q-4,4.53-4,12.23,0,7.31,3.72,11.59a12.22,12.22,0,0,0,9.73,4.3,17.46,17.46,0,0,0,9.79-2.73Z" transform="translate(-2.59)"/><path d="M112.75,259.82a16.3,16.3,0,0,1,9.32-2.71q9.78,0,9.79,11v18.7h-4.75v-4.49H127q-2.82,5.17-8.29,5.17a8.57,8.57,0,0,1-6.27-2.28,8.26,8.26,0,0,1-2.32-6.17q0-8.15,9-9.49l8-1.2q0-7.12-5.48-7.12a13.16,13.16,0,0,0-8.88,3.52Zm8,13.36c-2.22.32-3.75.91-4.59,1.79a5.08,5.08,0,0,0-1.26,3.67A4.48,4.48,0,0,0,116.3,282a5,5,0,0,0,3.62,1.32,6.49,6.49,0,0,0,5.16-2.37,8.78,8.78,0,0,0,2-5.93v-2.79Z" transform="translate(-2.59)"/><path d="M153,262.89a5.56,5.56,0,0,0-7.9,1.88,13.33,13.33,0,0,0-1.81,7.36v14.71h-4.8v-29h4.8v5.91h.1q2.06-6.4,7.09-6.4a6.45,6.45,0,0,1,2.52.39Z" transform="translate(-2.59)"/><path d="M177.56,273.63H158.63q.12,4.65,2.37,7.18a8,8,0,0,0,6.29,2.54,12.85,12.85,0,0,0,8.34-3.13v4.6q-3.57,2.7-9.47,2.7a11.22,11.22,0,0,1-9.16-4q-3.28-4-3.29-11.08a16.61,16.61,0,0,1,3.61-11,11.22,11.22,0,0,1,9-4.33,10.12,10.12,0,0,1,8.3,3.66q3,3.68,3,10.26Zm-4.79-4.12a9.73,9.73,0,0,0-1.74-6.1,5.82,5.82,0,0,0-4.82-2.15,6.47,6.47,0,0,0-5,2.29,10.88,10.88,0,0,0-2.63,6Z" transform="translate(-2.59)"/><path d="M196.46,248.24a5.76,5.76,0,0,0-2.91-.77q-4.5,0-4.5,6v4.33h6.34v4.26h-6.34v24.79h-4.74V262.05h-4.63v-4.26h4.63v-4.57a10.3,10.3,0,0,1,2.5-7.34,8.4,8.4,0,0,1,6.38-2.66,8.84,8.84,0,0,1,3.27.5Z" transform="translate(-2.59)"/><path d="M220.94,286.84h-4.82v-4.57H216a8.85,8.85,0,0,1-8.35,5.25q-9.6,0-9.61-12.34V257.79h4.75v16.63q0,8.85,6.31,8.85a6.13,6.13,0,0,0,5.06-2.48,9.91,9.91,0,0,0,1.93-6.27V257.79h4.82Z" transform="translate(-2.59)"/><path d="M228.1,286.84v-43h4.8v43Z" transform="translate(-2.59)"/><path d="M251.77,272.63q0-7.2,3.74-11.36a13,13,0,0,1,10.15-4.16q6.09,0,9.55,4t3.47,11.07q0,6.87-3.7,11.1a12.48,12.48,0,0,1-9.9,4.23,12.25,12.25,0,0,1-9.69-4.1Q251.76,279.33,251.77,272.63Zm4.89-.16c0,3.35.79,6,2.36,7.91a7.79,7.79,0,0,0,6.35,2.89,7.37,7.37,0,0,0,6.26-2.83c1.44-1.88,2.15-4.58,2.15-8.1s-.71-6.25-2.15-8.14a7.37,7.37,0,0,0-6.26-2.83,7.65,7.65,0,0,0-6.37,3Q256.66,267.3,256.66,272.47Z" transform="translate(-2.59)"/><path d="M297,248.24a5.76,5.76,0,0,0-2.91-.77q-4.5,0-4.5,6v4.33h6.34v4.26h-6.34v24.79h-4.74V262.05h-4.63v-4.26h4.63v-4.57a10.26,10.26,0,0,1,2.51-7.34,8.38,8.38,0,0,1,6.37-2.66,8.84,8.84,0,0,1,3.27.5Z" transform="translate(-2.59)"/><path d="M622.06,177.14a16.28,16.28,0,0,1,9.32-2.71q9.78,0,9.78,11v18.7h-4.74v-4.49h-.13q-2.81,5.18-8.29,5.17a8.56,8.56,0,0,1-6.26-2.28,8.26,8.26,0,0,1-2.32-6.17q0-8.14,9-9.48l8-1.21q0-7.12-5.48-7.12a13.12,13.12,0,0,0-8.88,3.52Zm8,13.36c-2.22.32-3.75.91-4.59,1.79a5.1,5.1,0,0,0-1.26,3.68,4.48,4.48,0,0,0,1.37,3.38,5,5,0,0,0,3.62,1.32,6.52,6.52,0,0,0,5.17-2.37,8.78,8.78,0,0,0,2-5.93v-2.79Z" transform="translate(-2.59)"/><path d="M670.63,204.16h-4.77V187.64q0-9-6.09-8.95a6.39,6.39,0,0,0-5.19,2.52,9.87,9.87,0,0,0-2,6.38v16.57h-4.79v-29h4.79v4.8h.1q3.06-5.49,8.88-5.49a8,8,0,0,1,6.78,3.06q2.33,3.06,2.32,8.92Z" transform="translate(-2.59)"/><path d="M700.76,204.16H696v-4.83h-.1a10.45,10.45,0,0,1-17.37,1.59q-3-3.93-3-10.6,0-7.2,3.42-11.54a10.85,10.85,0,0,1,9-4.35,8.46,8.46,0,0,1,8,4.62h.1V161.17h4.79ZM696,186.88a8.32,8.32,0,0,0-2.14-5.84,6.84,6.84,0,0,0-5.27-2.35,7,7,0,0,0-6,3.06c-1.47,2-2.2,4.81-2.2,8.33a12.51,12.51,0,0,0,2.12,7.69,6.69,6.69,0,0,0,5.63,2.82,7,7,0,0,0,5.68-2.77,10.74,10.74,0,0,0,2.2-6.9Z" transform="translate(-2.59)"/><path d="M38.22,364.18h-5.8L13.37,332.54a16.18,16.18,0,0,1-1.3-2.65h-.15a50.77,50.77,0,0,1,.2,5.7v28.59H7.28V323.51h6.14L32,354.6a28.48,28.48,0,0,1,1.56,2.81h.1a49.94,49.94,0,0,1-.24-5.94v-28h4.84Z" transform="translate(-2.59)"/><path d="M44.23,350q0-7.2,3.74-11.36t10.15-4.16q6.1,0,9.56,4t3.46,11.07q0,6.89-3.69,11.11a12.51,12.51,0,0,1-9.91,4.23,12.28,12.28,0,0,1-9.69-4.1Q44.24,356.68,44.23,350Zm4.89-.16c0,3.34.79,6,2.36,7.9a7.77,7.77,0,0,0,6.35,2.89,7.39,7.39,0,0,0,6.26-2.82q2.16-2.82,2.16-8.1t-2.16-8.14a7.37,7.37,0,0,0-6.26-2.84,7.67,7.67,0,0,0-6.37,3Q49.12,344.65,49.12,349.82Z" transform="translate(-2.59)"/><path d="M89.53,363.89a8.31,8.31,0,0,1-4.24.92q-7.26,0-7.26-8.64V339.39H73.38v-4.25H78v-7l4.77-1.62v8.61h6.73v4.25H82.8v15.86a7.13,7.13,0,0,0,.9,4.1,3.51,3.51,0,0,0,3,1.24,4.34,4.34,0,0,0,2.82-1Z" transform="translate(-2.59)"/><path d="M121.19,325.58a5.8,5.8,0,0,0-2.91-.76c-3,0-4.5,2-4.5,6v4.33h6.33v4.25h-6.33v24.79H109V339.39h-4.62v-4.25H109v-4.57a10.29,10.29,0,0,1,2.51-7.34,8.35,8.35,0,0,1,6.37-2.67,8.94,8.94,0,0,1,3.28.5Z" transform="translate(-2.59)"/><path d="M121.53,350q0-7.2,3.74-11.36t10.15-4.16q6.09,0,9.55,4t3.46,11.07q0,6.89-3.69,11.11a12.5,12.5,0,0,1-9.91,4.23,12.28,12.28,0,0,1-9.68-4.1Q121.52,356.68,121.53,350Zm4.89-.16c0,3.34.78,6,2.36,7.9a7.76,7.76,0,0,0,6.35,2.89,7.4,7.4,0,0,0,6.26-2.82q2.15-2.82,2.15-8.1t-2.15-8.14a7.39,7.39,0,0,0-6.26-2.84,7.69,7.69,0,0,0-6.38,3Q126.43,344.65,126.42,349.82Z" transform="translate(-2.59)"/><path d="M168.34,340.23a5.56,5.56,0,0,0-7.9,1.88,13.36,13.36,0,0,0-1.81,7.37v14.7h-4.8v-29h4.8v5.91h.09q2.06-6.41,7.1-6.41a6.45,6.45,0,0,1,2.52.39Z" transform="translate(-2.59)"/><path d="M203.77,362.87a13.57,13.57,0,0,1-7.49,2,12,12,0,0,1-9.44-4.05,15.24,15.24,0,0,1-3.57-10.48q0-7.14,3.85-11.51a13,13,0,0,1,10.31-4.37,13.34,13.34,0,0,1,6.36,1.41V341a10,10,0,0,0-6.36-2.26,8.34,8.34,0,0,0-6.69,3.06,12.23,12.23,0,0,0-2.58,8.15c0,3.35.81,6,2.44,7.86a8.2,8.2,0,0,0,6.57,2.83,10.41,10.41,0,0,0,6.6-2.47Z" transform="translate(-2.59)"/><path d="M231.7,364.18h-4.77v-16.7q0-8.78-6.07-8.77a6.35,6.35,0,0,0-5.16,2.56,10,10,0,0,0-2.06,6.45v16.46h-4.79v-43h4.79v18.73h.1q3.1-5.46,8.83-5.46,9.13,0,9.13,11.84Z" transform="translate(-2.59)"/><path d="M237.76,324.9a3.24,3.24,0,0,1,.87-2.3,2.8,2.8,0,0,1,2.14-.93,2.92,2.92,0,0,1,2.19.92,3.19,3.19,0,0,1,.89,2.31,3.13,3.13,0,0,1-.89,2.27,3,3,0,0,1-2.19.9,2.85,2.85,0,0,1-2.16-.9A3.18,3.18,0,0,1,237.76,324.9Zm.56,39.28v-29h4.79v29Z" transform="translate(-2.59)"/><path d="M250.3,364.18v-43h4.79v43Z" transform="translate(-2.59)"/><path d="M285.79,364.18H281v-4.83h-.1a10.43,10.43,0,0,1-17.36,1.59q-3-3.93-3-10.6,0-7.18,3.43-11.54a10.83,10.83,0,0,1,8.95-4.34,8.44,8.44,0,0,1,8,4.62h.1V321.19h4.8ZM281,346.9a8.4,8.4,0,0,0-2.14-5.84,6.86,6.86,0,0,0-5.28-2.35,7,7,0,0,0-6,3.06q-2.2,3.06-2.21,8.34a12.53,12.53,0,0,0,2.12,7.68,6.7,6.7,0,0,0,5.64,2.82,6.9,6.9,0,0,0,5.67-2.77A10.72,10.72,0,0,0,281,351Z" transform="translate(-2.59)"/><path d="M307.5,340.23a5.56,5.56,0,0,0-7.9,1.88,13.36,13.36,0,0,0-1.81,7.37v14.7H293v-29h4.79v5.91h.1q2.06-6.41,7.09-6.41a6.45,6.45,0,0,1,2.52.39Z" transform="translate(-2.59)"/><path d="M332.1,351H313.17q.12,4.65,2.37,7.19a8,8,0,0,0,6.29,2.53,12.84,12.84,0,0,0,8.34-3.12v4.59q-3.57,2.7-9.47,2.71a11.21,11.21,0,0,1-9.16-4q-3.29-4-3.29-11.08a16.6,16.6,0,0,1,3.61-11,11.21,11.21,0,0,1,9-4.33,10.12,10.12,0,0,1,8.29,3.66q3,3.66,3,10.25Zm-4.79-4.12a9.7,9.7,0,0,0-1.74-6.09,5.79,5.79,0,0,0-4.82-2.15,6.49,6.49,0,0,0-4.95,2.28,10.88,10.88,0,0,0-2.63,6Z" transform="translate(-2.59)"/><path d="M360,364.18h-4.77V347.66q0-8.94-6.09-9a6.36,6.36,0,0,0-5.19,2.52,9.87,9.87,0,0,0-2,6.38v16.57h-4.8v-29h4.8v4.8h.1q3.06-5.47,8.88-5.48a8,8,0,0,1,6.77,3.06q2.32,3.06,2.33,8.91Z" transform="translate(-2.59)"/><path d="M402.46,364.18h-4.82v-4.57h-.1a8.84,8.84,0,0,1-8.34,5.26q-9.61,0-9.61-12.35V335.14h4.74v16.62q0,8.85,6.31,8.85a6.13,6.13,0,0,0,5.07-2.48,9.92,9.92,0,0,0,1.93-6.26V335.14h4.82Z" transform="translate(-2.59)"/><path d="M432.51,364.18h-4.77V347.66q0-8.94-6.09-9a6.36,6.36,0,0,0-5.18,2.52,9.81,9.81,0,0,0-2,6.38v16.57h-4.8v-29h4.8v4.8h.09q3.06-5.47,8.88-5.48a8,8,0,0,1,6.78,3.06q2.32,3.06,2.32,8.91Z" transform="translate(-2.59)"/><path d="M462.64,364.18h-4.79v-4.83h-.1a10.44,10.44,0,0,1-17.37,1.59q-3-3.93-3-10.6,0-7.18,3.43-11.54a10.83,10.83,0,0,1,9-4.34,8.45,8.45,0,0,1,8,4.62h.1V321.19h4.79Zm-4.77-17.28a8.35,8.35,0,0,0-2.14-5.84,6.82,6.82,0,0,0-5.27-2.35,7,7,0,0,0-6,3.06c-1.46,2-2.2,4.82-2.2,8.34a12.53,12.53,0,0,0,2.12,7.68,6.7,6.7,0,0,0,5.64,2.82,6.9,6.9,0,0,0,5.67-2.77,10.71,10.71,0,0,0,2.2-6.89Z" transform="translate(-2.59)"/><path d="M491.89,351H473q.12,4.65,2.37,7.19a8,8,0,0,0,6.29,2.53,12.84,12.84,0,0,0,8.34-3.12v4.59q-3.57,2.7-9.47,2.71a11.21,11.21,0,0,1-9.16-4q-3.29-4-3.29-11.08a16.65,16.65,0,0,1,3.61-11,11.21,11.21,0,0,1,9-4.33,10.1,10.1,0,0,1,8.29,3.66q3,3.66,3,10.25Zm-4.79-4.12a9.7,9.7,0,0,0-1.74-6.09,5.79,5.79,0,0,0-4.82-2.15,6.49,6.49,0,0,0-5,2.28,11,11,0,0,0-2.63,6Z" transform="translate(-2.59)"/><path d="M511.43,340.23a5.56,5.56,0,0,0-7.9,1.88,13.36,13.36,0,0,0-1.81,7.37v14.7h-4.79v-29h4.79v5.91h.1q2.06-6.41,7.09-6.41a6.45,6.45,0,0,1,2.52.39Z" transform="translate(-2.59)"/><path d="M527.39,357.38a13.34,13.34,0,0,0,8.78,3.23,8.93,8.93,0,0,0,6.2-2.06,7.06,7.06,0,0,0,2.29-5.53q0-7.71-10.3-7.72h-3.15v-4.25h3q9.12,0,9.12-7.25,0-6.69-7-6.7a11.68,11.68,0,0,0-7.51,2.89v-4.86a16.11,16.11,0,0,1,8.68-2.31,11,11,0,0,1,7.78,2.72,9.15,9.15,0,0,1,2.94,7q0,8-7.59,10.27v.1a10,10,0,0,1,6.5,3.12,9.43,9.43,0,0,1,2.38,6.57,11.39,11.39,0,0,1-3.68,8.85q-3.68,3.38-9.8,3.37a15.63,15.63,0,0,1-8.68-2.16Z" transform="translate(-2.59)"/><path d="M591.69,335.14l-12.28,33.43q-3.43,9.3-9.66,9.29a9.79,9.79,0,0,1-3.06-.42v-4.51a7.09,7.09,0,0,0,2.69.58q3.25,0,4.87-4.1l2.08-5.28-10.62-29H571L578.09,357l.58,2.39h.13a24,24,0,0,1,.58-2.34l7.39-21.87Z" transform="translate(-2.59)"/><path d="M616.61,351H597.67q.12,4.65,2.38,7.19a8,8,0,0,0,6.28,2.53,12.8,12.8,0,0,0,8.34-3.12v4.59q-3.57,2.7-9.46,2.71a11.18,11.18,0,0,1-9.16-4q-3.3-4-3.29-11.08a16.65,16.65,0,0,1,3.6-11,11.22,11.22,0,0,1,9-4.33,10.1,10.1,0,0,1,8.29,3.66q3,3.66,3,10.25Zm-4.8-4.12a9.7,9.7,0,0,0-1.73-6.09,5.8,5.8,0,0,0-4.82-2.15,6.53,6.53,0,0,0-5,2.28,11,11,0,0,0-2.63,6Z" transform="translate(-2.59)"/><path d="M622.27,337.16a16.37,16.37,0,0,1,9.32-2.7q9.79,0,9.79,11v18.69h-4.75v-4.49h-.12q-2.81,5.18-8.29,5.18a8.55,8.55,0,0,1-6.26-2.29,8.25,8.25,0,0,1-2.33-6.17q0-8.15,9-9.48l8-1.21q0-7.11-5.48-7.11a13.2,13.2,0,0,0-8.88,3.51Zm8,13.37c-2.22.31-3.75.91-4.59,1.78a5.1,5.1,0,0,0-1.26,3.68,4.51,4.51,0,0,0,1.37,3.39,5,5,0,0,0,3.62,1.31,6.51,6.51,0,0,0,5.16-2.36,8.78,8.78,0,0,0,2-5.94v-2.78Z" transform="translate(-2.59)"/><path d="M662.48,340.23a5.56,5.56,0,0,0-7.9,1.88,13.36,13.36,0,0,0-1.81,7.37v14.7H648v-29h4.79v5.91h.1q2.05-6.41,7.09-6.41a6.42,6.42,0,0,1,2.52.39Z" transform="translate(-2.59)"/><path d="M664.6,357.91a12.53,12.53,0,0,0,7.81,2.81c3.73,0,5.6-1.32,5.6-3.94a3.55,3.55,0,0,0-1.22-2.77,18.87,18.87,0,0,0-5-2.59q-4.5-1.95-5.85-3.85a7.82,7.82,0,0,1-1.34-4.61,7.39,7.39,0,0,1,3-6.18,12,12,0,0,1,7.5-2.32,16,16,0,0,1,6.41,1.28v5a11.77,11.77,0,0,0-6.87-2.1,6.09,6.09,0,0,0-3.75,1.07,3.39,3.39,0,0,0-1.44,2.84,3.52,3.52,0,0,0,1,2.7,18.11,18.11,0,0,0,4.61,2.5q4.53,1.81,6.12,3.75a7.36,7.36,0,0,1,1.59,4.81,7.46,7.46,0,0,1-3,6.29,12.76,12.76,0,0,1-7.89,2.3,15.1,15.1,0,0,1-7.34-1.71Z" transform="translate(-2.59)"/><path d="M686.59,361.48a3.38,3.38,0,0,1,.9-2.39,3.12,3.12,0,0,1,4.53,0,3.41,3.41,0,0,1,.9,2.38,3.37,3.37,0,0,1-.9,2.35,3,3,0,0,1-2.3,1,2.92,2.92,0,0,1-2.24-1A3.36,3.36,0,0,1,686.59,361.48Z" transform="translate(-2.59)"/><path d="M322.6,276.4a16.52,16.52,0,0,0,11.67,4.85,9,9,0,0,0,5.57-1.45,4.56,4.56,0,0,0,1.87-3.75,5.68,5.68,0,0,0-1.49-3.72q-1.47-1.75-7.82-4.76-10-4.83-10-14,0-6.76,4.51-10.51t12-3.74a26.13,26.13,0,0,1,10.45,1.85v9.71a15.82,15.82,0,0,0-10-3.32,9.22,9.22,0,0,0-5.36,1.39,4.35,4.35,0,0,0-2,3.74,5.17,5.17,0,0,0,1.37,3.46c.92,1.06,3.18,2.48,6.78,4.28,4.23,2.06,7.13,4.25,8.72,6.54a14.13,14.13,0,0,1,2.37,8.21q0,7-4.34,10.64t-12.32,3.67q-7.31,0-12-2.7Z" transform="translate(-2.59)"/><path d="M393.07,288.61H384v-20H365.9v20h-9v-48.5h9v19.57H384V240.11h9.05Z" transform="translate(-2.59)"/><path d="M438.38,288.61H428.5l-3.19-11.11H409.86l-3.13,11.11h-9.82l15.56-48.5h10.65Zm-15.21-19.1-4.83-16.82a21.15,21.15,0,0,1-.66-4.22h-.24a20.46,20.46,0,0,1-.74,4.1l-4.86,16.94Z" transform="translate(-2.59)"/><path d="M477.31,288.61H466.88L460.21,276a18.7,18.7,0,0,0-3.37-5,4.26,4.26,0,0,0-2.8-1.13h-2.75v18.79h-9.05v-48.5h14.9q15.18,0,15.18,13.15a14.15,14.15,0,0,1-2.54,8.48,13.39,13.39,0,0,1-7,5v.13q2.94,1.13,6.51,7.39Zm-26-40.64v14h4.45a6.61,6.61,0,0,0,5.12-2.11,7.52,7.52,0,0,0,1.93-5.28q0-6.57-6.88-6.57Z" transform="translate(-2.59)"/><path d="M489,271.7v16.91H480v-48.5h14.63q15.87,0,15.87,15.34,0,7.46-4.79,11.95a16.19,16.19,0,0,1-12,4.3Zm0-23.58v15.66H493q8,0,8-7.92,0-7.74-7.9-7.74Z" transform="translate(-2.59)"/><path d="M555.78,288.61H530.61v-48.5h24.18v8.45H539.67V260h14.05v8.42H539.67v11.75h16.11Z" transform="translate(-2.59)"/><path d="M561.23,288.61v-48.5h14.68q22.65,0,22.65,23.64,0,11.24-6.34,18.05t-16.36,6.81Zm9.06-40.05v31.6h4.94a12.47,12.47,0,0,0,10.12-4.39Q589,271.39,589,263.9q0-7.23-3.84-11.28a13.11,13.11,0,0,0-10-4.06Z" transform="translate(-2.59)"/><path d="M638.75,285.35q-6.22,4.11-15.31,4.11-10.16,0-16-6.52t-5.87-17.81q0-11.46,6.46-18.65t17-7.19a29.86,29.86,0,0,1,11.89,2.19v9.8A21.34,21.34,0,0,0,624.84,248a12.34,12.34,0,0,0-10,4.57q-3.82,4.57-3.82,12.05t3.45,11.87a11.43,11.43,0,0,0,9.4,4.26,11.89,11.89,0,0,0,5.79-1.25v-10h-8.59v-8.3h17.64Z" transform="translate(-2.59)"/><path d="M670.86,288.61H645.69v-48.5h24.18v8.45H654.75V260h14v8.42h-14v11.75h16.11Z" transform="translate(-2.59)"/><path d="M674.36,276.4A16.49,16.49,0,0,0,686,281.25a9,9,0,0,0,5.58-1.45,4.55,4.55,0,0,0,1.86-3.75,5.67,5.67,0,0,0-1.48-3.72q-1.49-1.75-7.82-4.76-10-4.83-10-14,0-6.76,4.51-10.51t11.95-3.74a26.15,26.15,0,0,1,10.46,1.85v9.71a15.84,15.84,0,0,0-10-3.32,9.19,9.19,0,0,0-5.35,1.39,4.33,4.33,0,0,0-2,3.74,5.12,5.12,0,0,0,1.37,3.46c.91,1.06,3.17,2.48,6.78,4.28,4.22,2.06,7.13,4.25,8.71,6.54a14.13,14.13,0,0,1,2.38,8.21q0,7-4.34,10.64t-12.32,3.67q-7.3,0-12-2.7Z" transform="translate(-2.59)"/><g class="cls-2"><path class="cls-3" d="M57.09,178.28h1.1l-2.42,5.25a2.69,2.69,0,0,1-.74,1.06,2.16,2.16,0,0,1-2.21,0l.41-.71a1.24,1.24,0,0,0,.67.18.91.91,0,0,0,.55-.19,2.27,2.27,0,0,0,.48-.73l.17-.34-2.3-4.51H54l1.63,3.42Z" transform="translate(-2.59)"/><path class="cls-3" d="M59.08,177.36a.51.51,0,0,1,0-.8.7.7,0,0,1,.46-.18.75.75,0,0,1,.49.17.51.51,0,0,1,.2.4.52.52,0,0,1-.2.4.68.68,0,0,1-.48.18A.64.64,0,0,1,59.08,177.36Zm1.05,5.37-1.06,0,0-4.49h1.06Z" transform="translate(-2.59)"/><path class="cls-3" d="M64.29,180.05l2.23,2.62h-1.3l-1.64-2-.88.84v1.14H61.65l-.07-6.57h1.06l0,4.31L65,178.2h1.27Z" transform="translate(-2.59)"/><path class="cls-3" d="M70.46,178.31a2.06,2.06,0,0,1,.83.74,2,2,0,0,1,.29,1,2.2,2.2,0,0,1,0,.48l-3.76,0a1.39,1.39,0,0,0,.51,1,1.69,1.69,0,0,0,1.09.34,1.36,1.36,0,0,0,1.22-.61l.8.38a1.44,1.44,0,0,1-.78.73,3,3,0,0,1-1.29.27,3,3,0,0,1-1.33-.26,2.19,2.19,0,0,1-1-.79,2.24,2.24,0,0,1-.37-1.28,2.15,2.15,0,0,1,.34-1.25,2.18,2.18,0,0,1,.94-.81,3,3,0,0,1,1.28-.29A2.65,2.65,0,0,1,70.46,178.31Zm-2.17.81a1.21,1.21,0,0,0-.48.82l2.66,0a1.12,1.12,0,0,0-.39-.8,1.33,1.33,0,0,0-.88-.28A1.5,1.5,0,0,0,68.29,179.12Z" transform="translate(-2.59)"/><path class="cls-3" d="M75.85,182.39a2.48,2.48,0,0,1-1.21.29,2.07,2.07,0,0,1-1.24-.34,1.51,1.51,0,0,1-.5-1.26l0-2.2H72v-.76h.9v-1.3h1v1.3l1.58,0v.76l-1.58,0L74,181c0,.62.29.93.84.92a1.47,1.47,0,0,0,.69-.17Z" transform="translate(-2.59)"/><path class="cls-3" d="M80.1,178h1.06l0,4.48h-.94a5.61,5.61,0,0,0-.08-.72,1.56,1.56,0,0,1-.7.62,2.53,2.53,0,0,1-1,.22,2,2,0,0,1-1.39-.46,1.83,1.83,0,0,1-.53-1.37l0-2.73h1l0,2.47a1.49,1.49,0,0,0,.29,1,1,1,0,0,0,.85.33,1.47,1.47,0,0,0,1-.35,1.24,1.24,0,0,0,.4-1Z" transform="translate(-2.59)"/></g><g class="cls-4"><path class="cls-3" d="M75.09,85.28h1.1l-2.42,5.25A2.69,2.69,0,0,1,73,91.58a2.16,2.16,0,0,1-2.21,0l.41-.71a1.24,1.24,0,0,0,.67.18.91.91,0,0,0,.55-.19,2.27,2.27,0,0,0,.48-.73l.17-.34-2.3-4.51H72l1.63,3.42Z" transform="translate(-2.59)"/><path class="cls-3" d="M77.08,84.36a.51.51,0,0,1,0-.8.7.7,0,0,1,.46-.18.75.75,0,0,1,.49.17.51.51,0,0,1,.2.4.52.52,0,0,1-.2.4.68.68,0,0,1-.48.18A.64.64,0,0,1,77.08,84.36Zm1,5.37-1.06,0,0-4.49h1.06Z" transform="translate(-2.59)"/><path class="cls-3" d="M82.29,87.05l2.23,2.62h-1.3l-1.64-2-.88.84v1.14H79.65l-.07-6.57h1.06l0,4.31L83,85.2h1.27Z" transform="translate(-2.59)"/><path class="cls-3" d="M88.46,85.31a2.06,2.06,0,0,1,.83.74,2,2,0,0,1,.29,1,2.2,2.2,0,0,1,0,.48l-3.76,0a1.39,1.39,0,0,0,.51,1,1.69,1.69,0,0,0,1.09.34,1.36,1.36,0,0,0,1.22-.61l.8.38a1.44,1.44,0,0,1-.78.73,3,3,0,0,1-1.29.27A3,3,0,0,1,86,89.47a2.19,2.19,0,0,1-1-.79,2.24,2.24,0,0,1-.37-1.28A2.15,2.15,0,0,1,85,86.15a2.18,2.18,0,0,1,.94-.81,3,3,0,0,1,1.28-.29A2.65,2.65,0,0,1,88.46,85.31Zm-2.17.81a1.21,1.21,0,0,0-.48.82l2.66,0a1.12,1.12,0,0,0-.39-.8,1.33,1.33,0,0,0-.88-.28A1.5,1.5,0,0,0,86.29,86.12Z" transform="translate(-2.59)"/><path class="cls-3" d="M93.85,89.39a2.48,2.48,0,0,1-1.21.29,2.07,2.07,0,0,1-1.24-.34,1.51,1.51,0,0,1-.5-1.26l0-2.2H90v-.76h.9v-1.3h1v1.3l1.58,0v.76l-1.58,0L92,88c0,.62.29.93.84.92a1.47,1.47,0,0,0,.69-.17Z" transform="translate(-2.59)"/><path class="cls-3" d="M98.1,85h1.06l0,4.48h-.94a5.61,5.61,0,0,0-.08-.72,1.56,1.56,0,0,1-.7.62,2.53,2.53,0,0,1-1,.22,2,2,0,0,1-1.39-.46,1.83,1.83,0,0,1-.53-1.37l0-2.73h1l0,2.47a1.49,1.49,0,0,0,.29.95,1,1,0,0,0,.85.33,1.47,1.47,0,0,0,1-.35,1.24,1.24,0,0,0,.4-1Z" transform="translate(-2.59)"/></g></g></g></g></svg>